<mxfile host="app.diagrams.net" modified="2024-03-24T11:03:44.567Z" agent="Mozilla/5.0 (X11; Linux x86_64) AppleWebKit/537.36 (KHTML, like Gecko) Chrome/122.0.0.0 Safari/537.36" etag="-nVk_yBY2PTn7hzEDh7e" version="23.1.6" type="device">
  <diagram name="Page-1" id="q21v9VMaZ5GQ3Boq6yVd">
    <mxGraphModel dx="1282" dy="2338" grid="0" gridSize="10" guides="1" tooltips="1" connect="1" arrows="1" fold="1" page="1" pageScale="1" pageWidth="1920" pageHeight="1200" math="0" shadow="0">
      <root>
        <mxCell id="0" />
        <mxCell id="1" parent="0" />
        <mxCell id="OOlYLd6TCuqCxdgVUlkU-11" value="" style="group" parent="1" vertex="1" connectable="0">
          <mxGeometry x="28" y="148" width="620" height="350" as="geometry" />
        </mxCell>
        <mxCell id="a0nq-c-dvPok7_jrYzTV-1" value="" style="rounded=0;whiteSpace=wrap;html=1;container=1;" parent="OOlYLd6TCuqCxdgVUlkU-11" vertex="1">
          <mxGeometry y="30" width="620" height="320" as="geometry" />
        </mxCell>
        <mxCell id="OOlYLd6TCuqCxdgVUlkU-5" value="Register" style="rounded=1;whiteSpace=wrap;html=1;" parent="a0nq-c-dvPok7_jrYzTV-1" vertex="1">
          <mxGeometry x="462.5" y="11.5" width="70" height="20" as="geometry" />
        </mxCell>
        <mxCell id="OOlYLd6TCuqCxdgVUlkU-1" value="Home page /" style="text;html=1;align=center;verticalAlign=middle;resizable=0;points=[];autosize=1;strokeColor=none;fillColor=none;" parent="OOlYLd6TCuqCxdgVUlkU-11" vertex="1">
          <mxGeometry x="2" y="2" width="87" height="26" as="geometry" />
        </mxCell>
        <mxCell id="OOlYLd6TCuqCxdgVUlkU-2" value="Navigation Bar" style="rounded=1;whiteSpace=wrap;html=1;" parent="OOlYLd6TCuqCxdgVUlkU-11" vertex="1">
          <mxGeometry x="150" y="50" width="270" height="20" as="geometry" />
        </mxCell>
        <mxCell id="OOlYLd6TCuqCxdgVUlkU-3" value="Logo" style="rounded=1;whiteSpace=wrap;html=1;" parent="OOlYLd6TCuqCxdgVUlkU-11" vertex="1">
          <mxGeometry x="30" y="50" width="90" height="20" as="geometry" />
        </mxCell>
        <mxCell id="OOlYLd6TCuqCxdgVUlkU-6" value="&lt;p style=&quot;line-height: 20%;&quot;&gt;&lt;/p&gt;&lt;h1 style=&quot;line-height: 50%;&quot;&gt;*&lt;/h1&gt;&lt;p&gt;&lt;/p&gt;" style="rounded=1;whiteSpace=wrap;html=1;align=center;" parent="OOlYLd6TCuqCxdgVUlkU-11" vertex="1">
          <mxGeometry x="430" y="50" width="20" height="20" as="geometry" />
        </mxCell>
        <mxCell id="OOlYLd6TCuqCxdgVUlkU-7" value="Text" style="rounded=1;whiteSpace=wrap;html=1;" parent="OOlYLd6TCuqCxdgVUlkU-11" vertex="1">
          <mxGeometry x="160" y="110" width="270" height="20" as="geometry" />
        </mxCell>
        <mxCell id="OOlYLd6TCuqCxdgVUlkU-8" value="Text" style="rounded=1;whiteSpace=wrap;html=1;" parent="OOlYLd6TCuqCxdgVUlkU-11" vertex="1">
          <mxGeometry x="160" y="140" width="270" height="20" as="geometry" />
        </mxCell>
        <mxCell id="OOlYLd6TCuqCxdgVUlkU-9" value="More Text or Some Vector" style="rounded=1;whiteSpace=wrap;html=1;" parent="OOlYLd6TCuqCxdgVUlkU-11" vertex="1">
          <mxGeometry x="90" y="190" width="440" height="90" as="geometry" />
        </mxCell>
        <mxCell id="OOlYLd6TCuqCxdgVUlkU-4" value="Login" style="rounded=1;whiteSpace=wrap;html=1;" parent="OOlYLd6TCuqCxdgVUlkU-11" vertex="1">
          <mxGeometry x="542" y="41.5" width="70" height="20" as="geometry" />
        </mxCell>
        <mxCell id="OOlYLd6TCuqCxdgVUlkU-30" value="" style="group" parent="1" vertex="1" connectable="0">
          <mxGeometry x="730" y="52" width="620" height="348" as="geometry" />
        </mxCell>
        <mxCell id="OOlYLd6TCuqCxdgVUlkU-13" value="" style="rounded=0;whiteSpace=wrap;html=1;container=1;" parent="OOlYLd6TCuqCxdgVUlkU-30" vertex="1">
          <mxGeometry y="28" width="620" height="320" as="geometry" />
        </mxCell>
        <mxCell id="OOlYLd6TCuqCxdgVUlkU-21" value="Email" style="rounded=1;whiteSpace=wrap;html=1;" parent="OOlYLd6TCuqCxdgVUlkU-13" vertex="1">
          <mxGeometry x="164" y="89.5" width="270" height="20" as="geometry" />
        </mxCell>
        <mxCell id="OOlYLd6TCuqCxdgVUlkU-25" value="Username" style="rounded=1;whiteSpace=wrap;html=1;" parent="OOlYLd6TCuqCxdgVUlkU-13" vertex="1">
          <mxGeometry x="164" y="117.5" width="270" height="20" as="geometry" />
        </mxCell>
        <mxCell id="OOlYLd6TCuqCxdgVUlkU-26" value="Fullname" style="rounded=1;whiteSpace=wrap;html=1;" parent="OOlYLd6TCuqCxdgVUlkU-13" vertex="1">
          <mxGeometry x="164" y="148.5" width="270" height="20" as="geometry" />
        </mxCell>
        <mxCell id="OOlYLd6TCuqCxdgVUlkU-27" value="Password" style="rounded=1;whiteSpace=wrap;html=1;" parent="OOlYLd6TCuqCxdgVUlkU-13" vertex="1">
          <mxGeometry x="164" y="179.5" width="270" height="20" as="geometry" />
        </mxCell>
        <mxCell id="OOlYLd6TCuqCxdgVUlkU-28" value="Confirm Password" style="rounded=1;whiteSpace=wrap;html=1;" parent="OOlYLd6TCuqCxdgVUlkU-13" vertex="1">
          <mxGeometry x="164" y="210.5" width="270" height="20" as="geometry" />
        </mxCell>
        <mxCell id="OOlYLd6TCuqCxdgVUlkU-403" style="edgeStyle=orthogonalEdgeStyle;rounded=0;orthogonalLoop=1;jettySize=auto;html=1;" parent="OOlYLd6TCuqCxdgVUlkU-13" source="OOlYLd6TCuqCxdgVUlkU-29" edge="1">
          <mxGeometry relative="1" as="geometry">
            <mxPoint x="294" y="370" as="targetPoint" />
          </mxGeometry>
        </mxCell>
        <mxCell id="OOlYLd6TCuqCxdgVUlkU-404" value="On Successful Signup" style="edgeLabel;html=1;align=center;verticalAlign=middle;resizable=0;points=[];" parent="OOlYLd6TCuqCxdgVUlkU-403" vertex="1" connectable="0">
          <mxGeometry x="0.5044" y="-4" relative="1" as="geometry">
            <mxPoint as="offset" />
          </mxGeometry>
        </mxCell>
        <mxCell id="OOlYLd6TCuqCxdgVUlkU-29" value="Register" style="rounded=1;whiteSpace=wrap;html=1;" parent="OOlYLd6TCuqCxdgVUlkU-13" vertex="1">
          <mxGeometry x="249" y="248" width="90" height="20" as="geometry" />
        </mxCell>
        <mxCell id="OOlYLd6TCuqCxdgVUlkU-14" value="Signup Page /register" style="text;html=1;align=center;verticalAlign=middle;resizable=0;points=[];autosize=1;strokeColor=none;fillColor=none;" parent="OOlYLd6TCuqCxdgVUlkU-30" vertex="1">
          <mxGeometry x="-7" y="-4" width="133" height="26" as="geometry" />
        </mxCell>
        <mxCell id="OOlYLd6TCuqCxdgVUlkU-16" value="Logo" style="rounded=1;whiteSpace=wrap;html=1;" parent="OOlYLd6TCuqCxdgVUlkU-30" vertex="1">
          <mxGeometry x="30" y="48" width="90" height="20" as="geometry" />
        </mxCell>
        <mxCell id="OOlYLd6TCuqCxdgVUlkU-17" value="Login" style="rounded=1;whiteSpace=wrap;html=1;" parent="OOlYLd6TCuqCxdgVUlkU-30" vertex="1">
          <mxGeometry x="494" y="48" width="70" height="20" as="geometry" />
        </mxCell>
        <mxCell id="OOlYLd6TCuqCxdgVUlkU-19" value="&lt;p style=&quot;line-height: 20%;&quot;&gt;&lt;/p&gt;&lt;h1 style=&quot;line-height: 50%;&quot;&gt;*&lt;/h1&gt;&lt;p&gt;&lt;/p&gt;" style="rounded=1;whiteSpace=wrap;html=1;align=center;" parent="OOlYLd6TCuqCxdgVUlkU-30" vertex="1">
          <mxGeometry x="464" y="48" width="20" height="20" as="geometry" />
        </mxCell>
        <mxCell id="OOlYLd6TCuqCxdgVUlkU-48" value="" style="group" parent="1" vertex="1" connectable="0">
          <mxGeometry x="726" y="426" width="620" height="348" as="geometry" />
        </mxCell>
        <mxCell id="ygmrMFlOwkWCzzU3Cko4-6" style="edgeStyle=orthogonalEdgeStyle;rounded=0;orthogonalLoop=1;jettySize=auto;html=1;exitX=1;exitY=0;exitDx=0;exitDy=0;" edge="1" parent="OOlYLd6TCuqCxdgVUlkU-48" source="OOlYLd6TCuqCxdgVUlkU-32">
          <mxGeometry relative="1" as="geometry">
            <mxPoint x="1423.9999999999995" y="174" as="targetPoint" />
            <Array as="points">
              <mxPoint x="524" y="28" />
              <mxPoint x="524" y="8" />
              <mxPoint x="1354" y="8" />
              <mxPoint x="1354" y="175" />
              <mxPoint x="1424" y="175" />
            </Array>
          </mxGeometry>
        </mxCell>
        <mxCell id="ygmrMFlOwkWCzzU3Cko4-47" value="On successful login (as Admin)" style="edgeLabel;html=1;align=center;verticalAlign=middle;resizable=0;points=[];" vertex="1" connectable="0" parent="ygmrMFlOwkWCzzU3Cko4-6">
          <mxGeometry x="0.6365" y="7" relative="1" as="geometry">
            <mxPoint x="-415" y="-24" as="offset" />
          </mxGeometry>
        </mxCell>
        <mxCell id="OOlYLd6TCuqCxdgVUlkU-32" value="" style="rounded=0;whiteSpace=wrap;html=1;container=1;" parent="OOlYLd6TCuqCxdgVUlkU-48" vertex="1">
          <mxGeometry y="28" width="620" height="320" as="geometry" />
        </mxCell>
        <mxCell id="OOlYLd6TCuqCxdgVUlkU-33" value="Email" style="rounded=1;whiteSpace=wrap;html=1;" parent="OOlYLd6TCuqCxdgVUlkU-32" vertex="1">
          <mxGeometry x="159" y="117" width="270" height="20" as="geometry" />
        </mxCell>
        <mxCell id="OOlYLd6TCuqCxdgVUlkU-36" value="Password" style="rounded=1;whiteSpace=wrap;html=1;" parent="OOlYLd6TCuqCxdgVUlkU-32" vertex="1">
          <mxGeometry x="159" y="146" width="270" height="20" as="geometry" />
        </mxCell>
        <mxCell id="OOlYLd6TCuqCxdgVUlkU-401" style="edgeStyle=orthogonalEdgeStyle;rounded=0;orthogonalLoop=1;jettySize=auto;html=1;" parent="OOlYLd6TCuqCxdgVUlkU-32" source="OOlYLd6TCuqCxdgVUlkU-38" edge="1">
          <mxGeometry relative="1" as="geometry">
            <mxPoint x="294" y="406" as="targetPoint" />
          </mxGeometry>
        </mxCell>
        <mxCell id="OOlYLd6TCuqCxdgVUlkU-402" value="On Successful Login (as User)" style="edgeLabel;html=1;align=center;verticalAlign=middle;resizable=0;points=[];" parent="OOlYLd6TCuqCxdgVUlkU-401" vertex="1" connectable="0">
          <mxGeometry x="0.4644" relative="1" as="geometry">
            <mxPoint as="offset" />
          </mxGeometry>
        </mxCell>
        <mxCell id="OOlYLd6TCuqCxdgVUlkU-38" value="Login" style="rounded=1;whiteSpace=wrap;html=1;" parent="OOlYLd6TCuqCxdgVUlkU-32" vertex="1">
          <mxGeometry x="249" y="188" width="90" height="20" as="geometry" />
        </mxCell>
        <mxCell id="OOlYLd6TCuqCxdgVUlkU-39" value="Sign In Page /login" style="text;html=1;align=center;verticalAlign=middle;resizable=0;points=[];autosize=1;strokeColor=none;fillColor=none;" parent="OOlYLd6TCuqCxdgVUlkU-48" vertex="1">
          <mxGeometry x="-3" width="119" height="26" as="geometry" />
        </mxCell>
        <mxCell id="OOlYLd6TCuqCxdgVUlkU-40" value="Logo" style="rounded=1;whiteSpace=wrap;html=1;" parent="OOlYLd6TCuqCxdgVUlkU-48" vertex="1">
          <mxGeometry x="30" y="48" width="90" height="20" as="geometry" />
        </mxCell>
        <mxCell id="OOlYLd6TCuqCxdgVUlkU-41" value="Register" style="rounded=1;whiteSpace=wrap;html=1;" parent="OOlYLd6TCuqCxdgVUlkU-48" vertex="1">
          <mxGeometry x="494" y="48" width="70" height="20" as="geometry" />
        </mxCell>
        <mxCell id="OOlYLd6TCuqCxdgVUlkU-42" value="&lt;p style=&quot;line-height: 20%;&quot;&gt;&lt;/p&gt;&lt;h1 style=&quot;line-height: 50%;&quot;&gt;*&lt;/h1&gt;&lt;p&gt;&lt;/p&gt;" style="rounded=1;whiteSpace=wrap;html=1;align=center;" parent="OOlYLd6TCuqCxdgVUlkU-48" vertex="1">
          <mxGeometry x="464" y="48" width="20" height="20" as="geometry" />
        </mxCell>
        <mxCell id="OOlYLd6TCuqCxdgVUlkU-381" value="" style="group;strokeColor=none;" parent="1" vertex="1" connectable="0">
          <mxGeometry x="2150" y="75" width="1335" height="2099" as="geometry" />
        </mxCell>
        <mxCell id="OOlYLd6TCuqCxdgVUlkU-58" value="" style="group" parent="OOlYLd6TCuqCxdgVUlkU-381" vertex="1" connectable="0">
          <mxGeometry y="401" width="620" height="348" as="geometry" />
        </mxCell>
        <mxCell id="OOlYLd6TCuqCxdgVUlkU-59" value="" style="rounded=0;whiteSpace=wrap;html=1;container=1;movable=0;resizable=0;rotatable=0;deletable=0;editable=0;locked=1;connectable=0;" parent="OOlYLd6TCuqCxdgVUlkU-58" vertex="1">
          <mxGeometry y="28" width="620" height="320" as="geometry" />
        </mxCell>
        <mxCell id="OOlYLd6TCuqCxdgVUlkU-63" value="Admin Dashboard: /_/dashboard" style="text;html=1;align=center;verticalAlign=middle;resizable=0;points=[];autosize=1;strokeColor=none;fillColor=none;" parent="OOlYLd6TCuqCxdgVUlkU-58" vertex="1">
          <mxGeometry y="2" width="191" height="26" as="geometry" />
        </mxCell>
        <mxCell id="OOlYLd6TCuqCxdgVUlkU-68" value="" style="endArrow=none;html=1;rounded=0;" parent="OOlYLd6TCuqCxdgVUlkU-58" edge="1">
          <mxGeometry width="50" height="50" relative="1" as="geometry">
            <mxPoint x="152" y="342.5" as="sourcePoint" />
            <mxPoint x="149" y="33.5" as="targetPoint" />
          </mxGeometry>
        </mxCell>
        <mxCell id="OOlYLd6TCuqCxdgVUlkU-69" value="Logo" style="rounded=1;whiteSpace=wrap;html=1;" parent="OOlYLd6TCuqCxdgVUlkU-58" vertex="1">
          <mxGeometry x="33" y="44" width="90" height="20" as="geometry" />
        </mxCell>
        <mxCell id="OOlYLd6TCuqCxdgVUlkU-97" style="edgeStyle=orthogonalEdgeStyle;rounded=0;orthogonalLoop=1;jettySize=auto;html=1;exitX=0;exitY=0.75;exitDx=0;exitDy=0;" parent="OOlYLd6TCuqCxdgVUlkU-58" source="OOlYLd6TCuqCxdgVUlkU-78" edge="1">
          <mxGeometry relative="1" as="geometry">
            <mxPoint x="2" y="590" as="targetPoint" />
            <Array as="points">
              <mxPoint x="-55" y="172" />
              <mxPoint x="-55" y="590" />
            </Array>
          </mxGeometry>
        </mxCell>
        <mxCell id="OOlYLd6TCuqCxdgVUlkU-81" value="Today&#39;s Page Count&lt;br&gt;0" style="rounded=1;whiteSpace=wrap;html=1;" parent="OOlYLd6TCuqCxdgVUlkU-58" vertex="1">
          <mxGeometry x="195" y="89" width="121" height="48" as="geometry" />
        </mxCell>
        <mxCell id="OOlYLd6TCuqCxdgVUlkU-121" value="" style="endArrow=none;html=1;rounded=0;" parent="OOlYLd6TCuqCxdgVUlkU-58" edge="1">
          <mxGeometry width="50" height="50" relative="1" as="geometry">
            <mxPoint y="75" as="sourcePoint" />
            <mxPoint x="620" y="75" as="targetPoint" />
          </mxGeometry>
        </mxCell>
        <mxCell id="OOlYLd6TCuqCxdgVUlkU-122" value="Dashboard" style="rounded=1;whiteSpace=wrap;html=1;" parent="OOlYLd6TCuqCxdgVUlkU-58" vertex="1">
          <mxGeometry x="179.5" y="42" width="120" height="16" as="geometry" />
        </mxCell>
        <mxCell id="OOlYLd6TCuqCxdgVUlkU-857" value="() admin name" style="rounded=1;whiteSpace=wrap;html=1;" parent="OOlYLd6TCuqCxdgVUlkU-58" vertex="1">
          <mxGeometry x="490" y="47" width="120" height="16" as="geometry" />
        </mxCell>
        <mxCell id="OOlYLd6TCuqCxdgVUlkU-860" style="edgeStyle=orthogonalEdgeStyle;rounded=0;orthogonalLoop=1;jettySize=auto;html=1;exitX=1;exitY=0.5;exitDx=0;exitDy=0;" parent="OOlYLd6TCuqCxdgVUlkU-58" source="OOlYLd6TCuqCxdgVUlkU-858" edge="1">
          <mxGeometry relative="1" as="geometry">
            <mxPoint x="710" y="104" as="targetPoint" />
            <Array as="points">
              <mxPoint x="680" y="95" />
              <mxPoint x="680" y="104" />
            </Array>
          </mxGeometry>
        </mxCell>
        <mxCell id="OOlYLd6TCuqCxdgVUlkU-858" value="Change password" style="rounded=1;whiteSpace=wrap;html=1;dashed=1;dashPattern=12 12;" parent="OOlYLd6TCuqCxdgVUlkU-58" vertex="1">
          <mxGeometry x="490" y="77" width="120" height="36" as="geometry" />
        </mxCell>
        <mxCell id="OOlYLd6TCuqCxdgVUlkU-859" value="Logout" style="rounded=1;whiteSpace=wrap;html=1;dashed=1;dashPattern=12 12;" parent="OOlYLd6TCuqCxdgVUlkU-58" vertex="1">
          <mxGeometry x="490" y="113" width="120" height="40" as="geometry" />
        </mxCell>
        <mxCell id="ygmrMFlOwkWCzzU3Cko4-48" value="Today&#39;s User Count&lt;br&gt;0" style="rounded=1;whiteSpace=wrap;html=1;" vertex="1" parent="OOlYLd6TCuqCxdgVUlkU-58">
          <mxGeometry x="345" y="89" width="121" height="48" as="geometry" />
        </mxCell>
        <mxCell id="ygmrMFlOwkWCzzU3Cko4-49" value="Total Page Count&lt;br&gt;0" style="rounded=1;whiteSpace=wrap;html=1;" vertex="1" parent="OOlYLd6TCuqCxdgVUlkU-58">
          <mxGeometry x="341" y="155" width="121" height="48" as="geometry" />
        </mxCell>
        <mxCell id="ygmrMFlOwkWCzzU3Cko4-50" value="Total Page Count&lt;br&gt;0" style="rounded=1;whiteSpace=wrap;html=1;" vertex="1" parent="OOlYLd6TCuqCxdgVUlkU-58">
          <mxGeometry x="191" y="155" width="121" height="48" as="geometry" />
        </mxCell>
        <mxCell id="ygmrMFlOwkWCzzU3Cko4-51" value="Last 5 users" style="rounded=1;whiteSpace=wrap;html=1;" vertex="1" parent="OOlYLd6TCuqCxdgVUlkU-58">
          <mxGeometry x="177" y="233" width="205" height="59" as="geometry" />
        </mxCell>
        <mxCell id="ygmrMFlOwkWCzzU3Cko4-52" value="Last 5 pages" style="rounded=1;whiteSpace=wrap;html=1;" vertex="1" parent="OOlYLd6TCuqCxdgVUlkU-58">
          <mxGeometry x="390" y="233" width="208" height="61" as="geometry" />
        </mxCell>
        <mxCell id="ygmrMFlOwkWCzzU3Cko4-55" value="" style="group" vertex="1" connectable="0" parent="OOlYLd6TCuqCxdgVUlkU-58">
          <mxGeometry x="22" y="119" width="116" height="156" as="geometry" />
        </mxCell>
        <mxCell id="OOlYLd6TCuqCxdgVUlkU-77" value="Dashboard" style="rounded=1;whiteSpace=wrap;html=1;fillColor=#dae8fc;strokeColor=#6c8ebf;" parent="ygmrMFlOwkWCzzU3Cko4-55" vertex="1">
          <mxGeometry width="114" height="25" as="geometry" />
        </mxCell>
        <mxCell id="OOlYLd6TCuqCxdgVUlkU-78" value="Users" style="rounded=1;whiteSpace=wrap;html=1;" parent="ygmrMFlOwkWCzzU3Cko4-55" vertex="1">
          <mxGeometry y="34" width="114" height="25" as="geometry" />
        </mxCell>
        <mxCell id="OOlYLd6TCuqCxdgVUlkU-79" value="Pages" style="rounded=1;whiteSpace=wrap;html=1;" parent="ygmrMFlOwkWCzzU3Cko4-55" vertex="1">
          <mxGeometry x="2" y="131" width="114" height="25" as="geometry" />
        </mxCell>
        <mxCell id="ygmrMFlOwkWCzzU3Cko4-53" value="New User" style="rounded=1;whiteSpace=wrap;html=1;" vertex="1" parent="ygmrMFlOwkWCzzU3Cko4-55">
          <mxGeometry x="2" y="68" width="114" height="25" as="geometry" />
        </mxCell>
        <mxCell id="ygmrMFlOwkWCzzU3Cko4-54" value="Admins" style="rounded=1;whiteSpace=wrap;html=1;" vertex="1" parent="ygmrMFlOwkWCzzU3Cko4-55">
          <mxGeometry x="2" y="100" width="114" height="25" as="geometry" />
        </mxCell>
        <mxCell id="OOlYLd6TCuqCxdgVUlkU-84" value="" style="group" parent="OOlYLd6TCuqCxdgVUlkU-381" vertex="1" connectable="0">
          <mxGeometry x="3" y="849" width="620" height="415" as="geometry" />
        </mxCell>
        <mxCell id="OOlYLd6TCuqCxdgVUlkU-85" value="" style="rounded=0;whiteSpace=wrap;html=1;container=1;movable=0;resizable=0;rotatable=0;deletable=0;editable=0;locked=1;connectable=0;" parent="OOlYLd6TCuqCxdgVUlkU-84" vertex="1">
          <mxGeometry y="28" width="620" height="320" as="geometry" />
        </mxCell>
        <mxCell id="OOlYLd6TCuqCxdgVUlkU-86" value="Manage Users: /_/users" style="text;html=1;align=center;verticalAlign=middle;resizable=0;points=[];autosize=1;strokeColor=none;fillColor=none;" parent="OOlYLd6TCuqCxdgVUlkU-84" vertex="1">
          <mxGeometry width="145" height="26" as="geometry" />
        </mxCell>
        <mxCell id="OOlYLd6TCuqCxdgVUlkU-87" value="" style="endArrow=none;html=1;rounded=0;" parent="OOlYLd6TCuqCxdgVUlkU-84" edge="1">
          <mxGeometry width="50" height="50" relative="1" as="geometry">
            <mxPoint x="152" y="342.5" as="sourcePoint" />
            <mxPoint x="149" y="33.5" as="targetPoint" />
          </mxGeometry>
        </mxCell>
        <mxCell id="OOlYLd6TCuqCxdgVUlkU-88" value="Logo" style="rounded=1;whiteSpace=wrap;html=1;" parent="OOlYLd6TCuqCxdgVUlkU-84" vertex="1">
          <mxGeometry x="30" y="42" width="90" height="20" as="geometry" />
        </mxCell>
        <mxCell id="OOlYLd6TCuqCxdgVUlkU-89" value="" style="endArrow=none;html=1;rounded=0;" parent="OOlYLd6TCuqCxdgVUlkU-84" edge="1">
          <mxGeometry width="50" height="50" relative="1" as="geometry">
            <mxPoint y="77" as="sourcePoint" />
            <mxPoint x="620" y="77" as="targetPoint" />
          </mxGeometry>
        </mxCell>
        <mxCell id="OOlYLd6TCuqCxdgVUlkU-101" value="id | name | username | email | actions&amp;nbsp;" style="rounded=0;whiteSpace=wrap;html=1;" parent="OOlYLd6TCuqCxdgVUlkU-84" vertex="1">
          <mxGeometry x="190" y="114" width="373" height="19" as="geometry" />
        </mxCell>
        <mxCell id="OOlYLd6TCuqCxdgVUlkU-102" value="#01 | John Doe | jdoe | jdoe@example.com" style="rounded=0;whiteSpace=wrap;html=1;" parent="OOlYLd6TCuqCxdgVUlkU-84" vertex="1">
          <mxGeometry x="190" y="145.5" width="254.5" height="48" as="geometry" />
        </mxCell>
        <mxCell id="OOlYLd6TCuqCxdgVUlkU-103" value=".........." style="rounded=0;whiteSpace=wrap;html=1;" parent="OOlYLd6TCuqCxdgVUlkU-84" vertex="1">
          <mxGeometry x="190" y="206" width="372" height="37" as="geometry" />
        </mxCell>
        <mxCell id="OOlYLd6TCuqCxdgVUlkU-119" value="Manage Users" style="rounded=1;whiteSpace=wrap;html=1;" parent="OOlYLd6TCuqCxdgVUlkU-84" vertex="1">
          <mxGeometry x="179.5" y="44" width="120" height="16" as="geometry" />
        </mxCell>
        <mxCell id="OOlYLd6TCuqCxdgVUlkU-120" value="admin name | logout" style="rounded=1;whiteSpace=wrap;html=1;" parent="OOlYLd6TCuqCxdgVUlkU-84" vertex="1">
          <mxGeometry x="474" y="46" width="120" height="16" as="geometry" />
        </mxCell>
        <mxCell id="OOlYLd6TCuqCxdgVUlkU-169" style="edgeStyle=orthogonalEdgeStyle;rounded=0;orthogonalLoop=1;jettySize=auto;html=1;exitX=1;exitY=0.5;exitDx=0;exitDy=0;" parent="OOlYLd6TCuqCxdgVUlkU-84" source="OOlYLd6TCuqCxdgVUlkU-125" edge="1">
          <mxGeometry relative="1" as="geometry">
            <mxPoint x="709" y="-73.33333333333326" as="targetPoint" />
            <Array as="points">
              <mxPoint x="674" y="155" />
              <mxPoint x="674" y="-73" />
            </Array>
          </mxGeometry>
        </mxCell>
        <mxCell id="OOlYLd6TCuqCxdgVUlkU-171" value="Modify User" style="edgeLabel;html=1;align=center;verticalAlign=middle;resizable=0;points=[];" parent="OOlYLd6TCuqCxdgVUlkU-169" vertex="1" connectable="0">
          <mxGeometry x="0.2419" y="-1" relative="1" as="geometry">
            <mxPoint as="offset" />
          </mxGeometry>
        </mxCell>
        <mxCell id="OOlYLd6TCuqCxdgVUlkU-125" value="Modify" style="rounded=0;whiteSpace=wrap;html=1;" parent="OOlYLd6TCuqCxdgVUlkU-84" vertex="1">
          <mxGeometry x="509.5" y="144.5" width="52" height="22" as="geometry" />
        </mxCell>
        <mxCell id="OOlYLd6TCuqCxdgVUlkU-126" value="Delete" style="rounded=0;whiteSpace=wrap;html=1;" parent="OOlYLd6TCuqCxdgVUlkU-84" vertex="1">
          <mxGeometry x="509.5" y="171.5" width="53.5" height="23" as="geometry" />
        </mxCell>
        <mxCell id="OOlYLd6TCuqCxdgVUlkU-127" value="View Details" style="rounded=0;whiteSpace=wrap;html=1;" parent="OOlYLd6TCuqCxdgVUlkU-84" vertex="1">
          <mxGeometry x="451" y="144.25" width="52" height="50.5" as="geometry" />
        </mxCell>
        <mxCell id="OOlYLd6TCuqCxdgVUlkU-128" value=".........." style="rounded=0;whiteSpace=wrap;html=1;" parent="OOlYLd6TCuqCxdgVUlkU-84" vertex="1">
          <mxGeometry x="191" y="249" width="372" height="37" as="geometry" />
        </mxCell>
        <mxCell id="OOlYLd6TCuqCxdgVUlkU-234" value="Filters" style="rounded=0;whiteSpace=wrap;html=1;" parent="OOlYLd6TCuqCxdgVUlkU-84" vertex="1">
          <mxGeometry x="189" y="87" width="230" height="19" as="geometry" />
        </mxCell>
        <mxCell id="OOlYLd6TCuqCxdgVUlkU-235" value="Search Query" style="rounded=0;whiteSpace=wrap;html=1;" parent="OOlYLd6TCuqCxdgVUlkU-84" vertex="1">
          <mxGeometry x="425" y="87" width="110" height="19" as="geometry" />
        </mxCell>
        <mxCell id="OOlYLd6TCuqCxdgVUlkU-261" value="&lt;font style=&quot;font-size: 22px;&quot;&gt;*&lt;/font&gt;" style="rounded=0;whiteSpace=wrap;html=1;" parent="OOlYLd6TCuqCxdgVUlkU-84" vertex="1">
          <mxGeometry x="542" y="87" width="21" height="19" as="geometry" />
        </mxCell>
        <mxCell id="ygmrMFlOwkWCzzU3Cko4-56" value="" style="group" vertex="1" connectable="0" parent="OOlYLd6TCuqCxdgVUlkU-84">
          <mxGeometry x="20" y="114" width="116" height="156" as="geometry" />
        </mxCell>
        <mxCell id="ygmrMFlOwkWCzzU3Cko4-57" value="Dashboard" style="rounded=1;whiteSpace=wrap;html=1;fillColor=#ffffff;strokeColor=default;" vertex="1" parent="ygmrMFlOwkWCzzU3Cko4-56">
          <mxGeometry width="114" height="25" as="geometry" />
        </mxCell>
        <mxCell id="ygmrMFlOwkWCzzU3Cko4-58" value="Users" style="rounded=1;whiteSpace=wrap;html=1;fillColor=#cce5ff;strokeColor=#36393d;" vertex="1" parent="ygmrMFlOwkWCzzU3Cko4-56">
          <mxGeometry y="34" width="114" height="25" as="geometry" />
        </mxCell>
        <mxCell id="ygmrMFlOwkWCzzU3Cko4-91" style="edgeStyle=orthogonalEdgeStyle;rounded=0;orthogonalLoop=1;jettySize=auto;html=1;" edge="1" parent="ygmrMFlOwkWCzzU3Cko4-56" source="ygmrMFlOwkWCzzU3Cko4-59">
          <mxGeometry relative="1" as="geometry">
            <mxPoint x="-9.894736842104976" y="574.5789473684213" as="targetPoint" />
            <Array as="points">
              <mxPoint x="-97" y="144" />
              <mxPoint x="-97" y="575" />
            </Array>
          </mxGeometry>
        </mxCell>
        <mxCell id="ygmrMFlOwkWCzzU3Cko4-59" value="Pages" style="rounded=1;whiteSpace=wrap;html=1;" vertex="1" parent="ygmrMFlOwkWCzzU3Cko4-56">
          <mxGeometry x="2" y="131" width="114" height="25" as="geometry" />
        </mxCell>
        <mxCell id="ygmrMFlOwkWCzzU3Cko4-60" value="New User" style="rounded=1;whiteSpace=wrap;html=1;" vertex="1" parent="ygmrMFlOwkWCzzU3Cko4-56">
          <mxGeometry x="2" y="68" width="114" height="25" as="geometry" />
        </mxCell>
        <mxCell id="ygmrMFlOwkWCzzU3Cko4-61" value="Admins" style="rounded=1;whiteSpace=wrap;html=1;" vertex="1" parent="ygmrMFlOwkWCzzU3Cko4-56">
          <mxGeometry x="2" y="100" width="114" height="25" as="geometry" />
        </mxCell>
        <mxCell id="ygmrMFlOwkWCzzU3Cko4-80" value="" style="group" vertex="1" connectable="0" parent="OOlYLd6TCuqCxdgVUlkU-84">
          <mxGeometry x="365" y="308" width="83" height="30" as="geometry" />
        </mxCell>
        <mxCell id="ygmrMFlOwkWCzzU3Cko4-81" value="" style="triangle;whiteSpace=wrap;html=1;" vertex="1" parent="ygmrMFlOwkWCzzU3Cko4-80">
          <mxGeometry x="69" y="7.75" width="14" height="15" as="geometry" />
        </mxCell>
        <mxCell id="ygmrMFlOwkWCzzU3Cko4-82" value="" style="triangle;whiteSpace=wrap;html=1;rotation=-180;" vertex="1" parent="ygmrMFlOwkWCzzU3Cko4-80">
          <mxGeometry y="7.75" width="14" height="15" as="geometry" />
        </mxCell>
        <mxCell id="ygmrMFlOwkWCzzU3Cko4-83" value="1/5" style="text;html=1;align=center;verticalAlign=middle;whiteSpace=wrap;rounded=0;" vertex="1" parent="ygmrMFlOwkWCzzU3Cko4-80">
          <mxGeometry x="12" width="60" height="30" as="geometry" />
        </mxCell>
        <mxCell id="OOlYLd6TCuqCxdgVUlkU-150" value="" style="group" parent="OOlYLd6TCuqCxdgVUlkU-381" vertex="1" connectable="0">
          <mxGeometry x="713" y="631" width="620" height="348" as="geometry" />
        </mxCell>
        <mxCell id="OOlYLd6TCuqCxdgVUlkU-151" value="" style="rounded=0;whiteSpace=wrap;html=1;container=1;movable=0;resizable=0;rotatable=0;deletable=0;editable=0;locked=1;connectable=0;" parent="OOlYLd6TCuqCxdgVUlkU-150" vertex="1">
          <mxGeometry y="28" width="620" height="320" as="geometry" />
        </mxCell>
        <mxCell id="OOlYLd6TCuqCxdgVUlkU-152" value="Modify User [Popup] : /_/users&amp;nbsp;" style="text;html=1;align=center;verticalAlign=middle;resizable=0;points=[];autosize=1;strokeColor=none;fillColor=none;" parent="OOlYLd6TCuqCxdgVUlkU-150" vertex="1">
          <mxGeometry y="-2" width="183" height="26" as="geometry" />
        </mxCell>
        <mxCell id="OOlYLd6TCuqCxdgVUlkU-153" value="" style="endArrow=none;html=1;rounded=0;" parent="OOlYLd6TCuqCxdgVUlkU-150" edge="1">
          <mxGeometry width="50" height="50" relative="1" as="geometry">
            <mxPoint x="152" y="342.5" as="sourcePoint" />
            <mxPoint x="149" y="33.5" as="targetPoint" />
          </mxGeometry>
        </mxCell>
        <mxCell id="OOlYLd6TCuqCxdgVUlkU-154" value="Logo" style="rounded=1;whiteSpace=wrap;html=1;" parent="OOlYLd6TCuqCxdgVUlkU-150" vertex="1">
          <mxGeometry x="30" y="42" width="90" height="20" as="geometry" />
        </mxCell>
        <mxCell id="OOlYLd6TCuqCxdgVUlkU-155" value="" style="endArrow=none;html=1;rounded=0;" parent="OOlYLd6TCuqCxdgVUlkU-150" edge="1">
          <mxGeometry width="50" height="50" relative="1" as="geometry">
            <mxPoint y="77" as="sourcePoint" />
            <mxPoint x="620" y="77" as="targetPoint" />
          </mxGeometry>
        </mxCell>
        <mxCell id="OOlYLd6TCuqCxdgVUlkU-162" value="Manage Users" style="rounded=1;whiteSpace=wrap;html=1;" parent="OOlYLd6TCuqCxdgVUlkU-150" vertex="1">
          <mxGeometry x="179.5" y="44" width="120" height="16" as="geometry" />
        </mxCell>
        <mxCell id="OOlYLd6TCuqCxdgVUlkU-163" value="admin name | logout" style="rounded=1;whiteSpace=wrap;html=1;" parent="OOlYLd6TCuqCxdgVUlkU-150" vertex="1">
          <mxGeometry x="474" y="46" width="120" height="16" as="geometry" />
        </mxCell>
        <mxCell id="OOlYLd6TCuqCxdgVUlkU-172" value="&lt;div style=&quot;&quot;&gt;&lt;span style=&quot;background-color: initial;&quot;&gt;Name: ..................&lt;/span&gt;&lt;/div&gt;&lt;div style=&quot;&quot;&gt;&lt;span style=&quot;background-color: initial;&quot;&gt;Username: ............&lt;/span&gt;&lt;/div&gt;&lt;div style=&quot;&quot;&gt;&lt;span style=&quot;background-color: initial;&quot;&gt;Email: ...................&lt;/span&gt;&lt;/div&gt;" style="rounded=0;whiteSpace=wrap;html=1;align=left;" parent="OOlYLd6TCuqCxdgVUlkU-150" vertex="1">
          <mxGeometry x="183" y="96" width="390" height="124" as="geometry" />
        </mxCell>
        <mxCell id="OOlYLd6TCuqCxdgVUlkU-174" value="" style="rounded=0;whiteSpace=wrap;html=1;" parent="OOlYLd6TCuqCxdgVUlkU-150" vertex="1">
          <mxGeometry x="183" y="220" width="390" height="39" as="geometry" />
        </mxCell>
        <mxCell id="OOlYLd6TCuqCxdgVUlkU-190" value="Update" style="rounded=1;whiteSpace=wrap;html=1;" parent="OOlYLd6TCuqCxdgVUlkU-150" vertex="1">
          <mxGeometry x="231" y="209.5" width="120" height="60" as="geometry" />
        </mxCell>
        <mxCell id="OOlYLd6TCuqCxdgVUlkU-191" value="Cancel" style="rounded=1;whiteSpace=wrap;html=1;" parent="OOlYLd6TCuqCxdgVUlkU-150" vertex="1">
          <mxGeometry x="401" y="209.5" width="120" height="60" as="geometry" />
        </mxCell>
        <mxCell id="ygmrMFlOwkWCzzU3Cko4-165" value="" style="group" vertex="1" connectable="0" parent="OOlYLd6TCuqCxdgVUlkU-150">
          <mxGeometry x="17" y="124" width="116" height="159" as="geometry" />
        </mxCell>
        <mxCell id="ygmrMFlOwkWCzzU3Cko4-166" value="Dashboard" style="rounded=1;whiteSpace=wrap;html=1;" vertex="1" parent="ygmrMFlOwkWCzzU3Cko4-165">
          <mxGeometry width="114" height="25.48076923076923" as="geometry" />
        </mxCell>
        <mxCell id="ygmrMFlOwkWCzzU3Cko4-167" value="Users" style="rounded=1;whiteSpace=wrap;html=1;fillColor=#cce5ff;strokeColor=#36393d;" vertex="1" parent="ygmrMFlOwkWCzzU3Cko4-165">
          <mxGeometry y="34.65384615384615" width="114" height="25.48076923076923" as="geometry" />
        </mxCell>
        <mxCell id="ygmrMFlOwkWCzzU3Cko4-168" value="Pages" style="rounded=1;whiteSpace=wrap;html=1;" vertex="1" parent="ygmrMFlOwkWCzzU3Cko4-165">
          <mxGeometry x="2" y="133.51923076923077" width="114" height="25.48076923076923" as="geometry" />
        </mxCell>
        <mxCell id="ygmrMFlOwkWCzzU3Cko4-169" value="New User" style="rounded=1;whiteSpace=wrap;html=1;" vertex="1" parent="ygmrMFlOwkWCzzU3Cko4-165">
          <mxGeometry x="2" y="69.3076923076923" width="114" height="25.48076923076923" as="geometry" />
        </mxCell>
        <mxCell id="ygmrMFlOwkWCzzU3Cko4-170" value="Admins" style="rounded=1;whiteSpace=wrap;html=1;" vertex="1" parent="ygmrMFlOwkWCzzU3Cko4-165">
          <mxGeometry x="2" y="101.92307692307692" width="114" height="25.48076923076923" as="geometry" />
        </mxCell>
        <mxCell id="OOlYLd6TCuqCxdgVUlkU-193" value="" style="group" parent="OOlYLd6TCuqCxdgVUlkU-381" vertex="1" connectable="0">
          <mxGeometry x="710" y="996" width="620" height="348" as="geometry" />
        </mxCell>
        <mxCell id="OOlYLd6TCuqCxdgVUlkU-194" value="" style="rounded=0;whiteSpace=wrap;html=1;container=1;movable=0;resizable=0;rotatable=0;deletable=0;editable=0;locked=1;connectable=0;" parent="OOlYLd6TCuqCxdgVUlkU-193" vertex="1">
          <mxGeometry y="28" width="620" height="320" as="geometry" />
        </mxCell>
        <mxCell id="OOlYLd6TCuqCxdgVUlkU-195" value="Modify User [Popup] : /_/users&amp;nbsp;" style="text;html=1;align=center;verticalAlign=middle;resizable=0;points=[];autosize=1;strokeColor=none;fillColor=none;" parent="OOlYLd6TCuqCxdgVUlkU-193" vertex="1">
          <mxGeometry y="-2" width="183" height="26" as="geometry" />
        </mxCell>
        <mxCell id="OOlYLd6TCuqCxdgVUlkU-196" value="" style="endArrow=none;html=1;rounded=0;" parent="OOlYLd6TCuqCxdgVUlkU-193" edge="1">
          <mxGeometry width="50" height="50" relative="1" as="geometry">
            <mxPoint x="152" y="342.5" as="sourcePoint" />
            <mxPoint x="149" y="33.5" as="targetPoint" />
          </mxGeometry>
        </mxCell>
        <mxCell id="OOlYLd6TCuqCxdgVUlkU-197" value="Logo" style="rounded=1;whiteSpace=wrap;html=1;" parent="OOlYLd6TCuqCxdgVUlkU-193" vertex="1">
          <mxGeometry x="30" y="42" width="90" height="20" as="geometry" />
        </mxCell>
        <mxCell id="OOlYLd6TCuqCxdgVUlkU-198" value="" style="endArrow=none;html=1;rounded=0;" parent="OOlYLd6TCuqCxdgVUlkU-193" edge="1">
          <mxGeometry width="50" height="50" relative="1" as="geometry">
            <mxPoint y="77" as="sourcePoint" />
            <mxPoint x="620" y="77" as="targetPoint" />
          </mxGeometry>
        </mxCell>
        <mxCell id="OOlYLd6TCuqCxdgVUlkU-202" value="Manage Users" style="rounded=1;whiteSpace=wrap;html=1;" parent="OOlYLd6TCuqCxdgVUlkU-193" vertex="1">
          <mxGeometry x="179.5" y="44" width="120" height="16" as="geometry" />
        </mxCell>
        <mxCell id="OOlYLd6TCuqCxdgVUlkU-203" value="admin name | logout" style="rounded=1;whiteSpace=wrap;html=1;" parent="OOlYLd6TCuqCxdgVUlkU-193" vertex="1">
          <mxGeometry x="474" y="46" width="120" height="16" as="geometry" />
        </mxCell>
        <mxCell id="OOlYLd6TCuqCxdgVUlkU-204" value="&lt;div style=&quot;&quot;&gt;Are you sure to delete user?&lt;/div&gt;&lt;div style=&quot;&quot;&gt;All data of the user including pages will be destroyed.&lt;/div&gt;" style="rounded=0;whiteSpace=wrap;html=1;align=center;" parent="OOlYLd6TCuqCxdgVUlkU-193" vertex="1">
          <mxGeometry x="183" y="96" width="390" height="124" as="geometry" />
        </mxCell>
        <mxCell id="OOlYLd6TCuqCxdgVUlkU-205" value="" style="rounded=0;whiteSpace=wrap;html=1;" parent="OOlYLd6TCuqCxdgVUlkU-193" vertex="1">
          <mxGeometry x="183" y="220" width="390" height="39" as="geometry" />
        </mxCell>
        <mxCell id="OOlYLd6TCuqCxdgVUlkU-206" value="Confirm" style="rounded=1;whiteSpace=wrap;html=1;" parent="OOlYLd6TCuqCxdgVUlkU-193" vertex="1">
          <mxGeometry x="231" y="209.5" width="120" height="60" as="geometry" />
        </mxCell>
        <mxCell id="OOlYLd6TCuqCxdgVUlkU-207" value="Cancel" style="rounded=1;whiteSpace=wrap;html=1;" parent="OOlYLd6TCuqCxdgVUlkU-193" vertex="1">
          <mxGeometry x="401" y="209.5" width="120" height="60" as="geometry" />
        </mxCell>
        <mxCell id="ygmrMFlOwkWCzzU3Cko4-171" value="" style="group" vertex="1" connectable="0" parent="OOlYLd6TCuqCxdgVUlkU-193">
          <mxGeometry x="20" y="108.5" width="116" height="159" as="geometry" />
        </mxCell>
        <mxCell id="ygmrMFlOwkWCzzU3Cko4-172" value="Dashboard" style="rounded=1;whiteSpace=wrap;html=1;" vertex="1" parent="ygmrMFlOwkWCzzU3Cko4-171">
          <mxGeometry width="114" height="25.48076923076923" as="geometry" />
        </mxCell>
        <mxCell id="ygmrMFlOwkWCzzU3Cko4-173" value="Users" style="rounded=1;whiteSpace=wrap;html=1;fillColor=#cce5ff;strokeColor=#36393d;" vertex="1" parent="ygmrMFlOwkWCzzU3Cko4-171">
          <mxGeometry y="34.65384615384615" width="114" height="25.48076923076923" as="geometry" />
        </mxCell>
        <mxCell id="ygmrMFlOwkWCzzU3Cko4-174" value="Pages" style="rounded=1;whiteSpace=wrap;html=1;" vertex="1" parent="ygmrMFlOwkWCzzU3Cko4-171">
          <mxGeometry x="2" y="133.51923076923077" width="114" height="25.48076923076923" as="geometry" />
        </mxCell>
        <mxCell id="ygmrMFlOwkWCzzU3Cko4-175" value="New User" style="rounded=1;whiteSpace=wrap;html=1;" vertex="1" parent="ygmrMFlOwkWCzzU3Cko4-171">
          <mxGeometry x="2" y="69.3076923076923" width="114" height="25.48076923076923" as="geometry" />
        </mxCell>
        <mxCell id="ygmrMFlOwkWCzzU3Cko4-176" value="Admins" style="rounded=1;whiteSpace=wrap;html=1;" vertex="1" parent="ygmrMFlOwkWCzzU3Cko4-171">
          <mxGeometry x="2" y="101.92307692307692" width="114" height="25.48076923076923" as="geometry" />
        </mxCell>
        <mxCell id="OOlYLd6TCuqCxdgVUlkU-211" value="" style="group" parent="OOlYLd6TCuqCxdgVUlkU-381" vertex="1" connectable="0">
          <mxGeometry x="713" y="1379" width="620" height="348" as="geometry" />
        </mxCell>
        <mxCell id="OOlYLd6TCuqCxdgVUlkU-212" value="" style="rounded=0;whiteSpace=wrap;html=1;container=1;movable=0;resizable=0;rotatable=0;deletable=0;editable=0;locked=1;connectable=0;" parent="OOlYLd6TCuqCxdgVUlkU-211" vertex="1">
          <mxGeometry y="28" width="620" height="320" as="geometry" />
        </mxCell>
        <mxCell id="OOlYLd6TCuqCxdgVUlkU-213" value="Manage Pages: /_/pages/?user=[user_id]" style="text;html=1;align=center;verticalAlign=middle;resizable=0;points=[];autosize=1;strokeColor=none;fillColor=none;" parent="OOlYLd6TCuqCxdgVUlkU-211" vertex="1">
          <mxGeometry y="-4" width="238" height="26" as="geometry" />
        </mxCell>
        <mxCell id="OOlYLd6TCuqCxdgVUlkU-214" value="" style="endArrow=none;html=1;rounded=0;" parent="OOlYLd6TCuqCxdgVUlkU-211" edge="1">
          <mxGeometry width="50" height="50" relative="1" as="geometry">
            <mxPoint x="152" y="342.5" as="sourcePoint" />
            <mxPoint x="149" y="33.5" as="targetPoint" />
          </mxGeometry>
        </mxCell>
        <mxCell id="OOlYLd6TCuqCxdgVUlkU-215" value="Logo" style="rounded=1;whiteSpace=wrap;html=1;" parent="OOlYLd6TCuqCxdgVUlkU-211" vertex="1">
          <mxGeometry x="30" y="42" width="90" height="20" as="geometry" />
        </mxCell>
        <mxCell id="OOlYLd6TCuqCxdgVUlkU-216" value="" style="endArrow=none;html=1;rounded=0;" parent="OOlYLd6TCuqCxdgVUlkU-211" edge="1">
          <mxGeometry width="50" height="50" relative="1" as="geometry">
            <mxPoint y="77" as="sourcePoint" />
            <mxPoint x="620" y="77" as="targetPoint" />
          </mxGeometry>
        </mxCell>
        <mxCell id="OOlYLd6TCuqCxdgVUlkU-223" value="Manage pages" style="rounded=1;whiteSpace=wrap;html=1;" parent="OOlYLd6TCuqCxdgVUlkU-211" vertex="1">
          <mxGeometry x="179.5" y="44" width="120" height="16" as="geometry" />
        </mxCell>
        <mxCell id="OOlYLd6TCuqCxdgVUlkU-224" value="admin name | logout" style="rounded=1;whiteSpace=wrap;html=1;" parent="OOlYLd6TCuqCxdgVUlkU-211" vertex="1">
          <mxGeometry x="474" y="46" width="120" height="16" as="geometry" />
        </mxCell>
        <mxCell id="OOlYLd6TCuqCxdgVUlkU-290" value="Filters" style="rounded=0;whiteSpace=wrap;html=1;" parent="OOlYLd6TCuqCxdgVUlkU-211" vertex="1">
          <mxGeometry x="198" y="92" width="230" height="19" as="geometry" />
        </mxCell>
        <mxCell id="OOlYLd6TCuqCxdgVUlkU-291" value="Search Query" style="rounded=0;whiteSpace=wrap;html=1;" parent="OOlYLd6TCuqCxdgVUlkU-211" vertex="1">
          <mxGeometry x="434" y="92" width="110" height="19" as="geometry" />
        </mxCell>
        <mxCell id="OOlYLd6TCuqCxdgVUlkU-292" value="&lt;font style=&quot;font-size: 22px;&quot;&gt;*&lt;/font&gt;" style="rounded=0;whiteSpace=wrap;html=1;" parent="OOlYLd6TCuqCxdgVUlkU-211" vertex="1">
          <mxGeometry x="551" y="92" width="21" height="19" as="geometry" />
        </mxCell>
        <mxCell id="OOlYLd6TCuqCxdgVUlkU-293" value="" style="group" parent="OOlYLd6TCuqCxdgVUlkU-211" vertex="1" connectable="0">
          <mxGeometry x="199" y="144.25" width="373" height="50.5" as="geometry" />
        </mxCell>
        <mxCell id="OOlYLd6TCuqCxdgVUlkU-299" value="" style="group" parent="OOlYLd6TCuqCxdgVUlkU-293" vertex="1" connectable="0">
          <mxGeometry width="373" height="50.5" as="geometry" />
        </mxCell>
        <mxCell id="OOlYLd6TCuqCxdgVUlkU-300" value="" style="group" parent="OOlYLd6TCuqCxdgVUlkU-299" vertex="1" connectable="0">
          <mxGeometry width="373" height="50.5" as="geometry" />
        </mxCell>
        <mxCell id="OOlYLd6TCuqCxdgVUlkU-294" value="#1 |&amp;nbsp; Page Title | Owner | Status" style="rounded=0;whiteSpace=wrap;html=1;" parent="OOlYLd6TCuqCxdgVUlkU-300" vertex="1">
          <mxGeometry y="1.25" width="254.5" height="48" as="geometry" />
        </mxCell>
        <mxCell id="OOlYLd6TCuqCxdgVUlkU-295" value="Ban" style="rounded=0;whiteSpace=wrap;html=1;" parent="OOlYLd6TCuqCxdgVUlkU-300" vertex="1">
          <mxGeometry x="319.5" y="0.25" width="52" height="22" as="geometry" />
        </mxCell>
        <mxCell id="OOlYLd6TCuqCxdgVUlkU-296" value="Delete" style="rounded=0;whiteSpace=wrap;html=1;" parent="OOlYLd6TCuqCxdgVUlkU-300" vertex="1">
          <mxGeometry x="319.5" y="27.25" width="53.5" height="23" as="geometry" />
        </mxCell>
        <mxCell id="OOlYLd6TCuqCxdgVUlkU-297" value="View Page" style="rounded=0;whiteSpace=wrap;html=1;" parent="OOlYLd6TCuqCxdgVUlkU-300" vertex="1">
          <mxGeometry x="261" width="52" height="50.5" as="geometry" />
        </mxCell>
        <mxCell id="OOlYLd6TCuqCxdgVUlkU-302" value="" style="group" parent="OOlYLd6TCuqCxdgVUlkU-211" vertex="1" connectable="0">
          <mxGeometry x="200" y="208" width="373" height="50.5" as="geometry" />
        </mxCell>
        <mxCell id="OOlYLd6TCuqCxdgVUlkU-303" value="" style="group" parent="OOlYLd6TCuqCxdgVUlkU-302" vertex="1" connectable="0">
          <mxGeometry width="373" height="50.5" as="geometry" />
        </mxCell>
        <mxCell id="OOlYLd6TCuqCxdgVUlkU-304" value="" style="group" parent="OOlYLd6TCuqCxdgVUlkU-303" vertex="1" connectable="0">
          <mxGeometry width="373" height="50.5" as="geometry" />
        </mxCell>
        <mxCell id="OOlYLd6TCuqCxdgVUlkU-305" value="#2 |&amp;nbsp; Page Title | Owner | Status" style="rounded=0;whiteSpace=wrap;html=1;" parent="OOlYLd6TCuqCxdgVUlkU-304" vertex="1">
          <mxGeometry y="1.25" width="254.5" height="48" as="geometry" />
        </mxCell>
        <mxCell id="OOlYLd6TCuqCxdgVUlkU-306" value="Ban" style="rounded=0;whiteSpace=wrap;html=1;" parent="OOlYLd6TCuqCxdgVUlkU-304" vertex="1">
          <mxGeometry x="319.5" y="0.25" width="52" height="22" as="geometry" />
        </mxCell>
        <mxCell id="OOlYLd6TCuqCxdgVUlkU-307" value="Delete" style="rounded=0;whiteSpace=wrap;html=1;" parent="OOlYLd6TCuqCxdgVUlkU-304" vertex="1">
          <mxGeometry x="319.5" y="27.25" width="53.5" height="23" as="geometry" />
        </mxCell>
        <mxCell id="OOlYLd6TCuqCxdgVUlkU-308" value="View Page" style="rounded=0;whiteSpace=wrap;html=1;" parent="OOlYLd6TCuqCxdgVUlkU-304" vertex="1">
          <mxGeometry x="261" width="52" height="50.5" as="geometry" />
        </mxCell>
        <mxCell id="ygmrMFlOwkWCzzU3Cko4-178" value="" style="group" vertex="1" connectable="0" parent="OOlYLd6TCuqCxdgVUlkU-211">
          <mxGeometry x="27" y="108.5" width="116" height="159" as="geometry" />
        </mxCell>
        <mxCell id="ygmrMFlOwkWCzzU3Cko4-179" value="Dashboard" style="rounded=1;whiteSpace=wrap;html=1;" vertex="1" parent="ygmrMFlOwkWCzzU3Cko4-178">
          <mxGeometry width="114" height="25.48076923076923" as="geometry" />
        </mxCell>
        <mxCell id="ygmrMFlOwkWCzzU3Cko4-180" value="Users" style="rounded=1;whiteSpace=wrap;html=1;" vertex="1" parent="ygmrMFlOwkWCzzU3Cko4-178">
          <mxGeometry y="34.65384615384615" width="114" height="25.48076923076923" as="geometry" />
        </mxCell>
        <mxCell id="ygmrMFlOwkWCzzU3Cko4-181" value="Pages" style="rounded=1;whiteSpace=wrap;html=1;fillColor=#cce5ff;strokeColor=#36393d;" vertex="1" parent="ygmrMFlOwkWCzzU3Cko4-178">
          <mxGeometry x="2" y="133.51923076923077" width="114" height="25.48076923076923" as="geometry" />
        </mxCell>
        <mxCell id="ygmrMFlOwkWCzzU3Cko4-182" value="New User" style="rounded=1;whiteSpace=wrap;html=1;" vertex="1" parent="ygmrMFlOwkWCzzU3Cko4-178">
          <mxGeometry x="2" y="69.3076923076923" width="114" height="25.48076923076923" as="geometry" />
        </mxCell>
        <mxCell id="ygmrMFlOwkWCzzU3Cko4-183" value="Admins" style="rounded=1;whiteSpace=wrap;html=1;" vertex="1" parent="ygmrMFlOwkWCzzU3Cko4-178">
          <mxGeometry x="2" y="101.92307692307692" width="114" height="25.48076923076923" as="geometry" />
        </mxCell>
        <mxCell id="ygmrMFlOwkWCzzU3Cko4-232" value="" style="group" vertex="1" connectable="0" parent="OOlYLd6TCuqCxdgVUlkU-211">
          <mxGeometry x="325" y="300" width="83" height="30" as="geometry" />
        </mxCell>
        <mxCell id="ygmrMFlOwkWCzzU3Cko4-233" value="" style="triangle;whiteSpace=wrap;html=1;" vertex="1" parent="ygmrMFlOwkWCzzU3Cko4-232">
          <mxGeometry x="69" y="7.75" width="14" height="15" as="geometry" />
        </mxCell>
        <mxCell id="ygmrMFlOwkWCzzU3Cko4-234" value="" style="triangle;whiteSpace=wrap;html=1;rotation=-180;" vertex="1" parent="ygmrMFlOwkWCzzU3Cko4-232">
          <mxGeometry y="7.75" width="14" height="15" as="geometry" />
        </mxCell>
        <mxCell id="ygmrMFlOwkWCzzU3Cko4-235" value="1/5" style="text;html=1;align=center;verticalAlign=middle;whiteSpace=wrap;rounded=0;" vertex="1" parent="ygmrMFlOwkWCzzU3Cko4-232">
          <mxGeometry x="12" width="60" height="30" as="geometry" />
        </mxCell>
        <mxCell id="OOlYLd6TCuqCxdgVUlkU-262" value="" style="group" parent="OOlYLd6TCuqCxdgVUlkU-381" vertex="1" connectable="0">
          <mxGeometry x="13" y="1252" width="620" height="348" as="geometry" />
        </mxCell>
        <mxCell id="OOlYLd6TCuqCxdgVUlkU-263" value="" style="rounded=0;whiteSpace=wrap;html=1;container=1;movable=0;resizable=0;rotatable=0;deletable=0;editable=0;locked=1;connectable=0;" parent="OOlYLd6TCuqCxdgVUlkU-262" vertex="1">
          <mxGeometry y="28" width="620" height="320" as="geometry" />
        </mxCell>
        <mxCell id="OOlYLd6TCuqCxdgVUlkU-264" value="Manage Pages: /_/pages" style="text;html=1;align=center;verticalAlign=middle;resizable=0;points=[];autosize=1;strokeColor=none;fillColor=none;" parent="OOlYLd6TCuqCxdgVUlkU-262" vertex="1">
          <mxGeometry x="-3" width="151" height="26" as="geometry" />
        </mxCell>
        <mxCell id="OOlYLd6TCuqCxdgVUlkU-265" value="" style="endArrow=none;html=1;rounded=0;" parent="OOlYLd6TCuqCxdgVUlkU-262" edge="1">
          <mxGeometry width="50" height="50" relative="1" as="geometry">
            <mxPoint x="152" y="342.5" as="sourcePoint" />
            <mxPoint x="149" y="33.5" as="targetPoint" />
          </mxGeometry>
        </mxCell>
        <mxCell id="OOlYLd6TCuqCxdgVUlkU-266" value="Logo" style="rounded=1;whiteSpace=wrap;html=1;" parent="OOlYLd6TCuqCxdgVUlkU-262" vertex="1">
          <mxGeometry x="30" y="42" width="90" height="20" as="geometry" />
        </mxCell>
        <mxCell id="OOlYLd6TCuqCxdgVUlkU-267" value="" style="endArrow=none;html=1;rounded=0;" parent="OOlYLd6TCuqCxdgVUlkU-262" edge="1">
          <mxGeometry width="50" height="50" relative="1" as="geometry">
            <mxPoint y="77" as="sourcePoint" />
            <mxPoint x="620" y="77" as="targetPoint" />
          </mxGeometry>
        </mxCell>
        <mxCell id="OOlYLd6TCuqCxdgVUlkU-273" value=".........." style="rounded=0;whiteSpace=wrap;html=1;" parent="OOlYLd6TCuqCxdgVUlkU-262" vertex="1">
          <mxGeometry x="192" y="255.75" width="372" height="37" as="geometry" />
        </mxCell>
        <mxCell id="OOlYLd6TCuqCxdgVUlkU-274" value="Manage Pages" style="rounded=1;whiteSpace=wrap;html=1;" parent="OOlYLd6TCuqCxdgVUlkU-262" vertex="1">
          <mxGeometry x="179.5" y="44" width="120" height="16" as="geometry" />
        </mxCell>
        <mxCell id="OOlYLd6TCuqCxdgVUlkU-275" value="admin name | logout" style="rounded=1;whiteSpace=wrap;html=1;" parent="OOlYLd6TCuqCxdgVUlkU-262" vertex="1">
          <mxGeometry x="474" y="46" width="120" height="16" as="geometry" />
        </mxCell>
        <mxCell id="OOlYLd6TCuqCxdgVUlkU-289" value="" style="group" parent="OOlYLd6TCuqCxdgVUlkU-262" vertex="1" connectable="0">
          <mxGeometry x="192" y="199" width="379.5" height="50.5" as="geometry" />
        </mxCell>
        <mxCell id="OOlYLd6TCuqCxdgVUlkU-272" value="#1 |&amp;nbsp; Page Title | Owner | Status" style="rounded=0;whiteSpace=wrap;html=1;" parent="OOlYLd6TCuqCxdgVUlkU-289" vertex="1">
          <mxGeometry y="1.25" width="254.5" height="48" as="geometry" />
        </mxCell>
        <mxCell id="OOlYLd6TCuqCxdgVUlkU-278" value="View Page" style="rounded=0;whiteSpace=wrap;html=1;" parent="OOlYLd6TCuqCxdgVUlkU-289" vertex="1">
          <mxGeometry x="261" width="52" height="50.5" as="geometry" />
        </mxCell>
        <mxCell id="OOlYLd6TCuqCxdgVUlkU-380" style="edgeStyle=orthogonalEdgeStyle;rounded=0;orthogonalLoop=1;jettySize=auto;html=1;" parent="OOlYLd6TCuqCxdgVUlkU-289" source="OOlYLd6TCuqCxdgVUlkU-276" edge="1">
          <mxGeometry relative="1" as="geometry">
            <mxPoint x="396.96551724137953" y="281.06034482758605" as="targetPoint" />
          </mxGeometry>
        </mxCell>
        <mxCell id="OOlYLd6TCuqCxdgVUlkU-276" value="Ban" style="rounded=0;whiteSpace=wrap;html=1;" parent="OOlYLd6TCuqCxdgVUlkU-289" vertex="1">
          <mxGeometry x="324" y="28.5" width="52" height="22" as="geometry" />
        </mxCell>
        <mxCell id="OOlYLd6TCuqCxdgVUlkU-440" value="" style="group" parent="OOlYLd6TCuqCxdgVUlkU-262" vertex="1" connectable="0">
          <mxGeometry x="189" y="92" width="374" height="19" as="geometry" />
        </mxCell>
        <mxCell id="OOlYLd6TCuqCxdgVUlkU-286" value="Status&lt;span style=&quot;white-space: pre;&quot;&gt;&#x9;&lt;/span&gt;" style="rounded=0;whiteSpace=wrap;html=1;" parent="OOlYLd6TCuqCxdgVUlkU-440" vertex="1">
          <mxGeometry width="230" height="19" as="geometry" />
        </mxCell>
        <mxCell id="OOlYLd6TCuqCxdgVUlkU-287" value="Limit" style="rounded=0;whiteSpace=wrap;html=1;" parent="OOlYLd6TCuqCxdgVUlkU-440" vertex="1">
          <mxGeometry x="236" width="110" height="19" as="geometry" />
        </mxCell>
        <mxCell id="ygmrMFlOwkWCzzU3Cko4-64" value="" style="group" vertex="1" connectable="0" parent="OOlYLd6TCuqCxdgVUlkU-262">
          <mxGeometry x="14.5" y="104" width="116" height="156" as="geometry" />
        </mxCell>
        <mxCell id="ygmrMFlOwkWCzzU3Cko4-65" value="Dashboard" style="rounded=1;whiteSpace=wrap;html=1;fillColor=#ffffff;strokeColor=default;" vertex="1" parent="ygmrMFlOwkWCzzU3Cko4-64">
          <mxGeometry width="114" height="25" as="geometry" />
        </mxCell>
        <mxCell id="ygmrMFlOwkWCzzU3Cko4-66" value="Users" style="rounded=1;whiteSpace=wrap;html=1;" vertex="1" parent="ygmrMFlOwkWCzzU3Cko4-64">
          <mxGeometry y="34" width="114" height="25" as="geometry" />
        </mxCell>
        <mxCell id="ygmrMFlOwkWCzzU3Cko4-67" value="Pages" style="rounded=1;whiteSpace=wrap;html=1;fillColor=#cce5ff;strokeColor=#36393d;" vertex="1" parent="ygmrMFlOwkWCzzU3Cko4-64">
          <mxGeometry x="2" y="131" width="114" height="25" as="geometry" />
        </mxCell>
        <mxCell id="ygmrMFlOwkWCzzU3Cko4-68" value="New User" style="rounded=1;whiteSpace=wrap;html=1;" vertex="1" parent="ygmrMFlOwkWCzzU3Cko4-64">
          <mxGeometry x="2" y="68" width="114" height="25" as="geometry" />
        </mxCell>
        <mxCell id="ygmrMFlOwkWCzzU3Cko4-69" value="Admins" style="rounded=1;whiteSpace=wrap;html=1;" vertex="1" parent="ygmrMFlOwkWCzzU3Cko4-64">
          <mxGeometry x="2" y="100" width="114" height="25" as="geometry" />
        </mxCell>
        <mxCell id="ygmrMFlOwkWCzzU3Cko4-76" value="Search for page, with user" style="rounded=0;whiteSpace=wrap;html=1;" vertex="1" parent="OOlYLd6TCuqCxdgVUlkU-262">
          <mxGeometry x="189" y="118" width="230" height="19" as="geometry" />
        </mxCell>
        <mxCell id="ygmrMFlOwkWCzzU3Cko4-77" value="Search for apge with title, slug, content" style="rounded=0;whiteSpace=wrap;html=1;" vertex="1" parent="OOlYLd6TCuqCxdgVUlkU-262">
          <mxGeometry x="189" y="142" width="230" height="19" as="geometry" />
        </mxCell>
        <mxCell id="ygmrMFlOwkWCzzU3Cko4-78" value="search" style="rounded=0;whiteSpace=wrap;html=1;" vertex="1" parent="OOlYLd6TCuqCxdgVUlkU-262">
          <mxGeometry x="187" y="170" width="230" height="19" as="geometry" />
        </mxCell>
        <mxCell id="ygmrMFlOwkWCzzU3Cko4-79" value="reset" style="rounded=0;whiteSpace=wrap;html=1;" vertex="1" parent="OOlYLd6TCuqCxdgVUlkU-262">
          <mxGeometry x="427" y="170" width="107" height="19" as="geometry" />
        </mxCell>
        <mxCell id="OOlYLd6TCuqCxdgVUlkU-277" value="Delete" style="rounded=0;whiteSpace=wrap;html=1;" parent="OOlYLd6TCuqCxdgVUlkU-262" vertex="1">
          <mxGeometry x="518" y="199" width="53.5" height="23" as="geometry" />
        </mxCell>
        <mxCell id="ygmrMFlOwkWCzzU3Cko4-84" value="" style="group" vertex="1" connectable="0" parent="OOlYLd6TCuqCxdgVUlkU-262">
          <mxGeometry x="340.25" y="308" width="83" height="30" as="geometry" />
        </mxCell>
        <mxCell id="ygmrMFlOwkWCzzU3Cko4-85" value="" style="triangle;whiteSpace=wrap;html=1;" vertex="1" parent="ygmrMFlOwkWCzzU3Cko4-84">
          <mxGeometry x="69" y="7.75" width="14" height="15" as="geometry" />
        </mxCell>
        <mxCell id="ygmrMFlOwkWCzzU3Cko4-86" value="" style="triangle;whiteSpace=wrap;html=1;rotation=-180;" vertex="1" parent="ygmrMFlOwkWCzzU3Cko4-84">
          <mxGeometry y="7.75" width="14" height="15" as="geometry" />
        </mxCell>
        <mxCell id="ygmrMFlOwkWCzzU3Cko4-87" value="1/5" style="text;html=1;align=center;verticalAlign=middle;whiteSpace=wrap;rounded=0;" vertex="1" parent="ygmrMFlOwkWCzzU3Cko4-84">
          <mxGeometry x="12" width="60" height="30" as="geometry" />
        </mxCell>
        <mxCell id="OOlYLd6TCuqCxdgVUlkU-282" style="edgeStyle=orthogonalEdgeStyle;rounded=0;orthogonalLoop=1;jettySize=auto;html=1;exitX=0.5;exitY=1;exitDx=0;exitDy=0;" parent="OOlYLd6TCuqCxdgVUlkU-381" edge="1">
          <mxGeometry relative="1" as="geometry">
            <mxPoint x="715" y="1590" as="targetPoint" />
            <mxPoint x="482.99999999999955" y="1043.75" as="sourcePoint" />
            <Array as="points">
              <mxPoint x="483" y="1050" />
              <mxPoint x="673" y="1050" />
              <mxPoint x="673" y="1590" />
            </Array>
          </mxGeometry>
        </mxCell>
        <mxCell id="OOlYLd6TCuqCxdgVUlkU-284" value="Users Pages" style="edgeLabel;html=1;align=center;verticalAlign=middle;resizable=0;points=[];rotation=90;" parent="OOlYLd6TCuqCxdgVUlkU-282" vertex="1" connectable="0">
          <mxGeometry x="-0.0716" y="1" relative="1" as="geometry">
            <mxPoint y="58" as="offset" />
          </mxGeometry>
        </mxCell>
        <mxCell id="OOlYLd6TCuqCxdgVUlkU-192" style="edgeStyle=orthogonalEdgeStyle;rounded=0;orthogonalLoop=1;jettySize=auto;html=1;exitX=1;exitY=0.5;exitDx=0;exitDy=0;" parent="OOlYLd6TCuqCxdgVUlkU-381" edge="1" source="OOlYLd6TCuqCxdgVUlkU-126">
          <mxGeometry relative="1" as="geometry">
            <mxPoint x="724" y="1238.96" as="targetPoint" />
            <mxPoint x="582" y="1030" as="sourcePoint" />
            <Array as="points">
              <mxPoint x="566" y="1030" />
              <mxPoint x="690" y="1030" />
              <mxPoint x="690" y="1239" />
            </Array>
          </mxGeometry>
        </mxCell>
        <mxCell id="OOlYLd6TCuqCxdgVUlkU-210" value="Delete User" style="edgeLabel;html=1;align=center;verticalAlign=middle;resizable=0;points=[];rotation=90;" parent="OOlYLd6TCuqCxdgVUlkU-192" vertex="1" connectable="0">
          <mxGeometry x="0.1891" y="1" relative="1" as="geometry">
            <mxPoint as="offset" />
          </mxGeometry>
        </mxCell>
        <mxCell id="OOlYLd6TCuqCxdgVUlkU-309" value="" style="group" parent="OOlYLd6TCuqCxdgVUlkU-381" vertex="1" connectable="0">
          <mxGeometry x="715" y="1751" width="620" height="348" as="geometry" />
        </mxCell>
        <mxCell id="OOlYLd6TCuqCxdgVUlkU-310" value="" style="rounded=0;whiteSpace=wrap;html=1;container=1;movable=0;resizable=0;rotatable=0;deletable=0;editable=0;locked=1;connectable=0;" parent="OOlYLd6TCuqCxdgVUlkU-309" vertex="1">
          <mxGeometry y="28" width="620" height="320" as="geometry" />
        </mxCell>
        <mxCell id="OOlYLd6TCuqCxdgVUlkU-311" value="Delete Page [Popup]: /_/pages/" style="text;html=1;align=center;verticalAlign=middle;resizable=0;points=[];autosize=1;strokeColor=none;fillColor=none;" parent="OOlYLd6TCuqCxdgVUlkU-309" vertex="1">
          <mxGeometry x="-5.5" y="-4" width="185" height="26" as="geometry" />
        </mxCell>
        <mxCell id="OOlYLd6TCuqCxdgVUlkU-312" value="" style="endArrow=none;html=1;rounded=0;" parent="OOlYLd6TCuqCxdgVUlkU-309" edge="1">
          <mxGeometry width="50" height="50" relative="1" as="geometry">
            <mxPoint x="152" y="342.5" as="sourcePoint" />
            <mxPoint x="149" y="33.5" as="targetPoint" />
          </mxGeometry>
        </mxCell>
        <mxCell id="OOlYLd6TCuqCxdgVUlkU-313" value="Logo" style="rounded=1;whiteSpace=wrap;html=1;" parent="OOlYLd6TCuqCxdgVUlkU-309" vertex="1">
          <mxGeometry x="30" y="42" width="90" height="20" as="geometry" />
        </mxCell>
        <mxCell id="OOlYLd6TCuqCxdgVUlkU-314" value="" style="endArrow=none;html=1;rounded=0;" parent="OOlYLd6TCuqCxdgVUlkU-309" edge="1">
          <mxGeometry width="50" height="50" relative="1" as="geometry">
            <mxPoint y="77" as="sourcePoint" />
            <mxPoint x="620" y="77" as="targetPoint" />
          </mxGeometry>
        </mxCell>
        <mxCell id="OOlYLd6TCuqCxdgVUlkU-318" value="Manage pages" style="rounded=1;whiteSpace=wrap;html=1;" parent="OOlYLd6TCuqCxdgVUlkU-309" vertex="1">
          <mxGeometry x="179.5" y="44" width="120" height="16" as="geometry" />
        </mxCell>
        <mxCell id="OOlYLd6TCuqCxdgVUlkU-319" value="admin name | logout" style="rounded=1;whiteSpace=wrap;html=1;" parent="OOlYLd6TCuqCxdgVUlkU-309" vertex="1">
          <mxGeometry x="474" y="46" width="120" height="16" as="geometry" />
        </mxCell>
        <mxCell id="OOlYLd6TCuqCxdgVUlkU-355" value="" style="group" parent="OOlYLd6TCuqCxdgVUlkU-309" vertex="1" connectable="0">
          <mxGeometry x="197" y="108" width="390" height="173.5" as="geometry" />
        </mxCell>
        <mxCell id="OOlYLd6TCuqCxdgVUlkU-356" value="&lt;div style=&quot;&quot;&gt;Are you sure to delete this page?&lt;/div&gt;" style="rounded=0;whiteSpace=wrap;html=1;align=center;" parent="OOlYLd6TCuqCxdgVUlkU-355" vertex="1">
          <mxGeometry width="390" height="124" as="geometry" />
        </mxCell>
        <mxCell id="OOlYLd6TCuqCxdgVUlkU-357" value="" style="rounded=0;whiteSpace=wrap;html=1;" parent="OOlYLd6TCuqCxdgVUlkU-355" vertex="1">
          <mxGeometry y="124" width="390" height="39" as="geometry" />
        </mxCell>
        <mxCell id="OOlYLd6TCuqCxdgVUlkU-358" value="Confirm" style="rounded=1;whiteSpace=wrap;html=1;" parent="OOlYLd6TCuqCxdgVUlkU-355" vertex="1">
          <mxGeometry x="48" y="113.5" width="120" height="60" as="geometry" />
        </mxCell>
        <mxCell id="OOlYLd6TCuqCxdgVUlkU-359" value="Cancel" style="rounded=1;whiteSpace=wrap;html=1;" parent="OOlYLd6TCuqCxdgVUlkU-355" vertex="1">
          <mxGeometry x="218" y="113.5" width="120" height="60" as="geometry" />
        </mxCell>
        <mxCell id="ygmrMFlOwkWCzzU3Cko4-190" value="" style="group" vertex="1" connectable="0" parent="OOlYLd6TCuqCxdgVUlkU-309">
          <mxGeometry x="17" y="115.25" width="116" height="159" as="geometry" />
        </mxCell>
        <mxCell id="ygmrMFlOwkWCzzU3Cko4-191" value="Dashboard" style="rounded=1;whiteSpace=wrap;html=1;" vertex="1" parent="ygmrMFlOwkWCzzU3Cko4-190">
          <mxGeometry width="114" height="25.48076923076923" as="geometry" />
        </mxCell>
        <mxCell id="ygmrMFlOwkWCzzU3Cko4-192" value="Users" style="rounded=1;whiteSpace=wrap;html=1;" vertex="1" parent="ygmrMFlOwkWCzzU3Cko4-190">
          <mxGeometry y="34.65384615384615" width="114" height="25.48076923076923" as="geometry" />
        </mxCell>
        <mxCell id="ygmrMFlOwkWCzzU3Cko4-193" value="Pages" style="rounded=1;whiteSpace=wrap;html=1;fillColor=#cce5ff;strokeColor=#36393d;" vertex="1" parent="ygmrMFlOwkWCzzU3Cko4-190">
          <mxGeometry x="2" y="133.51923076923077" width="114" height="25.48076923076923" as="geometry" />
        </mxCell>
        <mxCell id="ygmrMFlOwkWCzzU3Cko4-194" value="New User" style="rounded=1;whiteSpace=wrap;html=1;" vertex="1" parent="ygmrMFlOwkWCzzU3Cko4-190">
          <mxGeometry x="2" y="69.3076923076923" width="114" height="25.48076923076923" as="geometry" />
        </mxCell>
        <mxCell id="ygmrMFlOwkWCzzU3Cko4-195" value="Admins" style="rounded=1;whiteSpace=wrap;html=1;" vertex="1" parent="ygmrMFlOwkWCzzU3Cko4-190">
          <mxGeometry x="2" y="101.92307692307692" width="114" height="25.48076923076923" as="geometry" />
        </mxCell>
        <mxCell id="OOlYLd6TCuqCxdgVUlkU-360" value="" style="group" parent="OOlYLd6TCuqCxdgVUlkU-381" vertex="1" connectable="0">
          <mxGeometry x="8" y="1651" width="620" height="348" as="geometry" />
        </mxCell>
        <mxCell id="OOlYLd6TCuqCxdgVUlkU-361" value="" style="rounded=0;whiteSpace=wrap;html=1;container=1;movable=0;resizable=0;rotatable=0;deletable=0;editable=0;locked=1;connectable=0;" parent="OOlYLd6TCuqCxdgVUlkU-360" vertex="1">
          <mxGeometry y="28" width="620" height="320" as="geometry" />
        </mxCell>
        <mxCell id="OOlYLd6TCuqCxdgVUlkU-362" value="Ban Page [Popup]: /_/pages/" style="text;html=1;align=center;verticalAlign=middle;resizable=0;points=[];autosize=1;strokeColor=none;fillColor=none;" parent="OOlYLd6TCuqCxdgVUlkU-360" vertex="1">
          <mxGeometry x="1.5" y="-4" width="171" height="26" as="geometry" />
        </mxCell>
        <mxCell id="OOlYLd6TCuqCxdgVUlkU-363" value="" style="endArrow=none;html=1;rounded=0;" parent="OOlYLd6TCuqCxdgVUlkU-360" edge="1">
          <mxGeometry width="50" height="50" relative="1" as="geometry">
            <mxPoint x="152" y="342.5" as="sourcePoint" />
            <mxPoint x="149" y="33.5" as="targetPoint" />
          </mxGeometry>
        </mxCell>
        <mxCell id="OOlYLd6TCuqCxdgVUlkU-364" value="Logo" style="rounded=1;whiteSpace=wrap;html=1;" parent="OOlYLd6TCuqCxdgVUlkU-360" vertex="1">
          <mxGeometry x="30" y="42" width="90" height="20" as="geometry" />
        </mxCell>
        <mxCell id="OOlYLd6TCuqCxdgVUlkU-365" value="" style="endArrow=none;html=1;rounded=0;" parent="OOlYLd6TCuqCxdgVUlkU-360" edge="1">
          <mxGeometry width="50" height="50" relative="1" as="geometry">
            <mxPoint y="77" as="sourcePoint" />
            <mxPoint x="620" y="77" as="targetPoint" />
          </mxGeometry>
        </mxCell>
        <mxCell id="OOlYLd6TCuqCxdgVUlkU-369" value="Manage pages" style="rounded=1;whiteSpace=wrap;html=1;" parent="OOlYLd6TCuqCxdgVUlkU-360" vertex="1">
          <mxGeometry x="179.5" y="44" width="120" height="16" as="geometry" />
        </mxCell>
        <mxCell id="OOlYLd6TCuqCxdgVUlkU-370" value="admin name | logout" style="rounded=1;whiteSpace=wrap;html=1;" parent="OOlYLd6TCuqCxdgVUlkU-360" vertex="1">
          <mxGeometry x="474" y="46" width="120" height="16" as="geometry" />
        </mxCell>
        <mxCell id="OOlYLd6TCuqCxdgVUlkU-371" value="" style="group" parent="OOlYLd6TCuqCxdgVUlkU-360" vertex="1" connectable="0">
          <mxGeometry x="197" y="108" width="390" height="173.5" as="geometry" />
        </mxCell>
        <mxCell id="OOlYLd6TCuqCxdgVUlkU-372" value="&lt;div style=&quot;&quot;&gt;Are you sure to ban this page?&lt;/div&gt;" style="rounded=0;whiteSpace=wrap;html=1;align=center;" parent="OOlYLd6TCuqCxdgVUlkU-371" vertex="1">
          <mxGeometry width="390" height="124" as="geometry" />
        </mxCell>
        <mxCell id="OOlYLd6TCuqCxdgVUlkU-373" value="" style="rounded=0;whiteSpace=wrap;html=1;" parent="OOlYLd6TCuqCxdgVUlkU-371" vertex="1">
          <mxGeometry y="124" width="390" height="39" as="geometry" />
        </mxCell>
        <mxCell id="OOlYLd6TCuqCxdgVUlkU-374" value="Confirm" style="rounded=1;whiteSpace=wrap;html=1;" parent="OOlYLd6TCuqCxdgVUlkU-371" vertex="1">
          <mxGeometry x="48" y="113.5" width="120" height="60" as="geometry" />
        </mxCell>
        <mxCell id="OOlYLd6TCuqCxdgVUlkU-375" value="Cancel" style="rounded=1;whiteSpace=wrap;html=1;" parent="OOlYLd6TCuqCxdgVUlkU-371" vertex="1">
          <mxGeometry x="218" y="113.5" width="120" height="60" as="geometry" />
        </mxCell>
        <mxCell id="ygmrMFlOwkWCzzU3Cko4-123" value="" style="group" vertex="1" connectable="0" parent="OOlYLd6TCuqCxdgVUlkU-360">
          <mxGeometry x="17" y="116.75" width="116" height="156" as="geometry" />
        </mxCell>
        <mxCell id="ygmrMFlOwkWCzzU3Cko4-124" value="Dashboard" style="rounded=1;whiteSpace=wrap;html=1;fillColor=#ffffff;strokeColor=default;" vertex="1" parent="ygmrMFlOwkWCzzU3Cko4-123">
          <mxGeometry width="114" height="25" as="geometry" />
        </mxCell>
        <mxCell id="ygmrMFlOwkWCzzU3Cko4-125" value="Users" style="rounded=1;whiteSpace=wrap;html=1;" vertex="1" parent="ygmrMFlOwkWCzzU3Cko4-123">
          <mxGeometry y="34" width="114" height="25" as="geometry" />
        </mxCell>
        <mxCell id="ygmrMFlOwkWCzzU3Cko4-126" value="Pages" style="rounded=1;whiteSpace=wrap;html=1;fillColor=#cce5ff;strokeColor=#36393d;" vertex="1" parent="ygmrMFlOwkWCzzU3Cko4-123">
          <mxGeometry x="2" y="131" width="114" height="25" as="geometry" />
        </mxCell>
        <mxCell id="ygmrMFlOwkWCzzU3Cko4-127" value="New User" style="rounded=1;whiteSpace=wrap;html=1;" vertex="1" parent="ygmrMFlOwkWCzzU3Cko4-123">
          <mxGeometry x="2" y="68" width="114" height="25" as="geometry" />
        </mxCell>
        <mxCell id="ygmrMFlOwkWCzzU3Cko4-131" style="edgeStyle=orthogonalEdgeStyle;rounded=0;orthogonalLoop=1;jettySize=auto;html=1;" edge="1" parent="ygmrMFlOwkWCzzU3Cko4-123" source="ygmrMFlOwkWCzzU3Cko4-128">
          <mxGeometry relative="1" as="geometry">
            <mxPoint x="-25" y="542.25" as="targetPoint" />
            <Array as="points">
              <mxPoint x="-96" y="112" />
              <mxPoint x="-96" y="542" />
            </Array>
          </mxGeometry>
        </mxCell>
        <mxCell id="ygmrMFlOwkWCzzU3Cko4-128" value="Admins" style="rounded=1;whiteSpace=wrap;html=1;" vertex="1" parent="ygmrMFlOwkWCzzU3Cko4-123">
          <mxGeometry x="2" y="100" width="114" height="25" as="geometry" />
        </mxCell>
        <mxCell id="OOlYLd6TCuqCxdgVUlkU-376" style="edgeStyle=orthogonalEdgeStyle;rounded=0;orthogonalLoop=1;jettySize=auto;html=1;exitX=0.5;exitY=0;exitDx=0;exitDy=0;" parent="OOlYLd6TCuqCxdgVUlkU-381" edge="1" source="OOlYLd6TCuqCxdgVUlkU-277">
          <mxGeometry relative="1" as="geometry">
            <mxPoint x="720" y="1944" as="targetPoint" />
            <mxPoint x="581" y="1407" as="sourcePoint" />
            <Array as="points">
              <mxPoint x="558" y="1407" />
              <mxPoint x="661" y="1407" />
              <mxPoint x="661" y="1944" />
            </Array>
          </mxGeometry>
        </mxCell>
        <mxCell id="OOlYLd6TCuqCxdgVUlkU-377" value="Delete Page" style="edgeLabel;html=1;align=center;verticalAlign=middle;resizable=0;points=[];" parent="OOlYLd6TCuqCxdgVUlkU-376" vertex="1" connectable="0">
          <mxGeometry x="0.3704" y="-2" relative="1" as="geometry">
            <mxPoint as="offset" />
          </mxGeometry>
        </mxCell>
        <mxCell id="OOlYLd6TCuqCxdgVUlkU-795" value="" style="group" parent="OOlYLd6TCuqCxdgVUlkU-381" vertex="1" connectable="0">
          <mxGeometry x="710" y="265" width="620" height="348" as="geometry" />
        </mxCell>
        <mxCell id="OOlYLd6TCuqCxdgVUlkU-796" value="" style="rounded=0;whiteSpace=wrap;html=1;container=1;movable=0;resizable=0;rotatable=0;deletable=0;editable=0;locked=1;connectable=0;" parent="OOlYLd6TCuqCxdgVUlkU-795" vertex="1">
          <mxGeometry y="28" width="620" height="320" as="geometry" />
        </mxCell>
        <mxCell id="OOlYLd6TCuqCxdgVUlkU-797" value="Admin Dashboard: /_/settings" style="text;html=1;align=center;verticalAlign=middle;resizable=0;points=[];autosize=1;strokeColor=none;fillColor=none;" parent="OOlYLd6TCuqCxdgVUlkU-795" vertex="1">
          <mxGeometry x="6" width="180" height="30" as="geometry" />
        </mxCell>
        <mxCell id="OOlYLd6TCuqCxdgVUlkU-798" value="" style="endArrow=none;html=1;rounded=0;" parent="OOlYLd6TCuqCxdgVUlkU-795" edge="1">
          <mxGeometry width="50" height="50" relative="1" as="geometry">
            <mxPoint x="152" y="342.5" as="sourcePoint" />
            <mxPoint x="149" y="33.5" as="targetPoint" />
          </mxGeometry>
        </mxCell>
        <mxCell id="OOlYLd6TCuqCxdgVUlkU-799" value="Logo" style="rounded=1;whiteSpace=wrap;html=1;" parent="OOlYLd6TCuqCxdgVUlkU-795" vertex="1">
          <mxGeometry x="33" y="44" width="90" height="20" as="geometry" />
        </mxCell>
        <mxCell id="OOlYLd6TCuqCxdgVUlkU-807" value="" style="endArrow=none;html=1;rounded=0;" parent="OOlYLd6TCuqCxdgVUlkU-795" edge="1">
          <mxGeometry width="50" height="50" relative="1" as="geometry">
            <mxPoint y="75" as="sourcePoint" />
            <mxPoint x="620" y="75" as="targetPoint" />
          </mxGeometry>
        </mxCell>
        <mxCell id="OOlYLd6TCuqCxdgVUlkU-808" value="Settings" style="rounded=1;whiteSpace=wrap;html=1;" parent="OOlYLd6TCuqCxdgVUlkU-795" vertex="1">
          <mxGeometry x="179.5" y="42" width="120" height="16" as="geometry" />
        </mxCell>
        <mxCell id="OOlYLd6TCuqCxdgVUlkU-809" value="admin name | logout" style="rounded=1;whiteSpace=wrap;html=1;" parent="OOlYLd6TCuqCxdgVUlkU-795" vertex="1">
          <mxGeometry x="474" y="44" width="120" height="16" as="geometry" />
        </mxCell>
        <mxCell id="OOlYLd6TCuqCxdgVUlkU-812" value="Change Password" style="rounded=1;whiteSpace=wrap;html=1;fillColor=#d5e8d4;strokeColor=#82b366;" parent="OOlYLd6TCuqCxdgVUlkU-795" vertex="1">
          <mxGeometry x="210" y="233" width="310" height="16" as="geometry" />
        </mxCell>
        <mxCell id="OOlYLd6TCuqCxdgVUlkU-813" value="Enter old password" style="rounded=1;whiteSpace=wrap;html=1;" parent="OOlYLd6TCuqCxdgVUlkU-795" vertex="1">
          <mxGeometry x="210" y="144" width="310" height="16" as="geometry" />
        </mxCell>
        <mxCell id="OOlYLd6TCuqCxdgVUlkU-814" value="Enter new password" style="rounded=1;whiteSpace=wrap;html=1;" parent="OOlYLd6TCuqCxdgVUlkU-795" vertex="1">
          <mxGeometry x="210" y="171" width="310" height="16" as="geometry" />
        </mxCell>
        <mxCell id="OOlYLd6TCuqCxdgVUlkU-815" value="Confirm new password" style="rounded=1;whiteSpace=wrap;html=1;" parent="OOlYLd6TCuqCxdgVUlkU-795" vertex="1">
          <mxGeometry x="210" y="200" width="310" height="16" as="geometry" />
        </mxCell>
        <mxCell id="ygmrMFlOwkWCzzU3Cko4-143" value="" style="group" vertex="1" connectable="0" parent="OOlYLd6TCuqCxdgVUlkU-795">
          <mxGeometry x="17" y="117" width="116" height="156" as="geometry" />
        </mxCell>
        <mxCell id="ygmrMFlOwkWCzzU3Cko4-144" value="Dashboard" style="rounded=1;whiteSpace=wrap;html=1;" vertex="1" parent="ygmrMFlOwkWCzzU3Cko4-143">
          <mxGeometry width="114" height="25" as="geometry" />
        </mxCell>
        <mxCell id="ygmrMFlOwkWCzzU3Cko4-145" value="Users" style="rounded=1;whiteSpace=wrap;html=1;" vertex="1" parent="ygmrMFlOwkWCzzU3Cko4-143">
          <mxGeometry y="34" width="114" height="25" as="geometry" />
        </mxCell>
        <mxCell id="ygmrMFlOwkWCzzU3Cko4-146" value="Pages" style="rounded=1;whiteSpace=wrap;html=1;" vertex="1" parent="ygmrMFlOwkWCzzU3Cko4-143">
          <mxGeometry x="2" y="131" width="114" height="25" as="geometry" />
        </mxCell>
        <mxCell id="ygmrMFlOwkWCzzU3Cko4-223" style="edgeStyle=orthogonalEdgeStyle;rounded=0;orthogonalLoop=1;jettySize=auto;html=1;" edge="1" parent="ygmrMFlOwkWCzzU3Cko4-143" source="ygmrMFlOwkWCzzU3Cko4-147">
          <mxGeometry relative="1" as="geometry">
            <mxPoint x="-14.947368421052488" y="-267.5789473684208" as="targetPoint" />
            <Array as="points">
              <mxPoint x="-78" y="81" />
              <mxPoint x="-78" y="-268" />
            </Array>
          </mxGeometry>
        </mxCell>
        <mxCell id="ygmrMFlOwkWCzzU3Cko4-147" value="New User" style="rounded=1;whiteSpace=wrap;html=1;" vertex="1" parent="ygmrMFlOwkWCzzU3Cko4-143">
          <mxGeometry x="2" y="68" width="114" height="25" as="geometry" />
        </mxCell>
        <mxCell id="ygmrMFlOwkWCzzU3Cko4-148" value="Admins" style="rounded=1;whiteSpace=wrap;html=1;" vertex="1" parent="ygmrMFlOwkWCzzU3Cko4-143">
          <mxGeometry x="2" y="100" width="114" height="25" as="geometry" />
        </mxCell>
        <mxCell id="OOlYLd6TCuqCxdgVUlkU-382" value="" style="group" parent="1" vertex="1" connectable="0">
          <mxGeometry x="721" y="830" width="620" height="354" as="geometry" />
        </mxCell>
        <mxCell id="OOlYLd6TCuqCxdgVUlkU-383" value="" style="rounded=0;whiteSpace=wrap;html=1;container=1;movable=0;resizable=0;rotatable=0;deletable=0;editable=0;locked=1;connectable=0;" parent="OOlYLd6TCuqCxdgVUlkU-382" vertex="1">
          <mxGeometry y="28" width="620" height="320" as="geometry" />
        </mxCell>
        <mxCell id="OOlYLd6TCuqCxdgVUlkU-384" value="User Dashboard: /dashboard" style="text;html=1;align=center;verticalAlign=middle;resizable=0;points=[];autosize=1;strokeColor=none;fillColor=none;" parent="OOlYLd6TCuqCxdgVUlkU-382" vertex="1">
          <mxGeometry x="6" width="180" height="30" as="geometry" />
        </mxCell>
        <mxCell id="OOlYLd6TCuqCxdgVUlkU-385" value="" style="endArrow=none;html=1;rounded=0;" parent="OOlYLd6TCuqCxdgVUlkU-382" edge="1">
          <mxGeometry width="50" height="50" relative="1" as="geometry">
            <mxPoint x="152" y="342.5" as="sourcePoint" />
            <mxPoint x="149" y="33.5" as="targetPoint" />
          </mxGeometry>
        </mxCell>
        <mxCell id="OOlYLd6TCuqCxdgVUlkU-386" value="Logo" style="rounded=1;whiteSpace=wrap;html=1;" parent="OOlYLd6TCuqCxdgVUlkU-382" vertex="1">
          <mxGeometry x="33" y="44" width="90" height="20" as="geometry" />
        </mxCell>
        <mxCell id="OOlYLd6TCuqCxdgVUlkU-589" style="edgeStyle=orthogonalEdgeStyle;rounded=0;orthogonalLoop=1;jettySize=auto;html=1;exitX=0;exitY=0.5;exitDx=0;exitDy=0;" parent="OOlYLd6TCuqCxdgVUlkU-382" source="OOlYLd6TCuqCxdgVUlkU-390" edge="1">
          <mxGeometry relative="1" as="geometry">
            <mxPoint x="-1" y="520" as="targetPoint" />
            <Array as="points">
              <mxPoint x="-31" y="154" />
              <mxPoint x="-31" y="520" />
            </Array>
          </mxGeometry>
        </mxCell>
        <mxCell id="OOlYLd6TCuqCxdgVUlkU-391" value="Total Pages&lt;br&gt;0" style="rounded=1;whiteSpace=wrap;html=1;" parent="OOlYLd6TCuqCxdgVUlkU-382" vertex="1">
          <mxGeometry x="209" y="90" width="81" height="40" as="geometry" />
        </mxCell>
        <mxCell id="OOlYLd6TCuqCxdgVUlkU-393" value="Banned Pages&amp;nbsp;&lt;br&gt;0" style="rounded=1;whiteSpace=wrap;html=1;" parent="OOlYLd6TCuqCxdgVUlkU-382" vertex="1">
          <mxGeometry x="309" y="90" width="89" height="40" as="geometry" />
        </mxCell>
        <mxCell id="OOlYLd6TCuqCxdgVUlkU-394" value="" style="endArrow=none;html=1;rounded=0;" parent="OOlYLd6TCuqCxdgVUlkU-382" edge="1">
          <mxGeometry width="50" height="50" relative="1" as="geometry">
            <mxPoint y="75" as="sourcePoint" />
            <mxPoint x="620" y="75" as="targetPoint" />
          </mxGeometry>
        </mxCell>
        <mxCell id="OOlYLd6TCuqCxdgVUlkU-395" value="Dashboard" style="rounded=1;whiteSpace=wrap;html=1;" parent="OOlYLd6TCuqCxdgVUlkU-382" vertex="1">
          <mxGeometry x="179.5" y="42" width="120" height="16" as="geometry" />
        </mxCell>
        <mxCell id="OOlYLd6TCuqCxdgVUlkU-396" value="() user name" style="rounded=1;whiteSpace=wrap;html=1;" parent="OOlYLd6TCuqCxdgVUlkU-382" vertex="1">
          <mxGeometry x="474" y="44" width="120" height="16" as="geometry" />
        </mxCell>
        <mxCell id="OOlYLd6TCuqCxdgVUlkU-406" value="Last&amp;nbsp; five updated pages" style="rounded=1;whiteSpace=wrap;html=1;" parent="OOlYLd6TCuqCxdgVUlkU-382" vertex="1">
          <mxGeometry x="200" y="220" width="331" height="15" as="geometry" />
        </mxCell>
        <mxCell id="OOlYLd6TCuqCxdgVUlkU-407" value="......" style="rounded=1;whiteSpace=wrap;html=1;" parent="OOlYLd6TCuqCxdgVUlkU-382" vertex="1">
          <mxGeometry x="200" y="240" width="330" height="65" as="geometry" />
        </mxCell>
        <mxCell id="OOlYLd6TCuqCxdgVUlkU-596" value="" style="group" parent="OOlYLd6TCuqCxdgVUlkU-382" vertex="1" connectable="0">
          <mxGeometry x="21.5" y="100" width="115" height="235" as="geometry" />
        </mxCell>
        <mxCell id="OOlYLd6TCuqCxdgVUlkU-387" value="Dashboard" style="rounded=1;whiteSpace=wrap;html=1;fillColor=#dae8fc;strokeColor=#6c8ebf;" parent="OOlYLd6TCuqCxdgVUlkU-596" vertex="1">
          <mxGeometry width="114" height="25" as="geometry" />
        </mxCell>
        <mxCell id="OOlYLd6TCuqCxdgVUlkU-390" value="Pages" style="rounded=1;whiteSpace=wrap;html=1;" parent="OOlYLd6TCuqCxdgVUlkU-596" vertex="1">
          <mxGeometry y="41" width="114" height="25" as="geometry" />
        </mxCell>
        <mxCell id="OOlYLd6TCuqCxdgVUlkU-695" style="edgeStyle=orthogonalEdgeStyle;rounded=0;orthogonalLoop=1;jettySize=auto;html=1;exitX=0;exitY=0.25;exitDx=0;exitDy=0;" parent="OOlYLd6TCuqCxdgVUlkU-596" source="OOlYLd6TCuqCxdgVUlkU-405" edge="1">
          <mxGeometry relative="1" as="geometry">
            <mxPoint x="-72.5" y="168" as="targetPoint" />
          </mxGeometry>
        </mxCell>
        <mxCell id="OOlYLd6TCuqCxdgVUlkU-405" value="Header" style="rounded=1;whiteSpace=wrap;html=1;" parent="OOlYLd6TCuqCxdgVUlkU-596" vertex="1">
          <mxGeometry y="150" width="114" height="25" as="geometry" />
        </mxCell>
        <mxCell id="OOlYLd6TCuqCxdgVUlkU-746" style="edgeStyle=orthogonalEdgeStyle;rounded=0;orthogonalLoop=1;jettySize=auto;html=1;exitX=0;exitY=0.5;exitDx=0;exitDy=0;" parent="OOlYLd6TCuqCxdgVUlkU-596" source="OOlYLd6TCuqCxdgVUlkU-590" edge="1">
          <mxGeometry relative="1" as="geometry">
            <mxPoint x="-132.5" y="350" as="targetPoint" />
            <Array as="points">
              <mxPoint x="-42" y="193" />
              <mxPoint x="-42" y="290" />
              <mxPoint x="-132" y="290" />
            </Array>
          </mxGeometry>
        </mxCell>
        <mxCell id="OOlYLd6TCuqCxdgVUlkU-590" value="Footer" style="rounded=1;whiteSpace=wrap;html=1;" parent="OOlYLd6TCuqCxdgVUlkU-596" vertex="1">
          <mxGeometry x="1" y="180" width="114" height="25" as="geometry" />
        </mxCell>
        <mxCell id="OOlYLd6TCuqCxdgVUlkU-652" style="edgeStyle=orthogonalEdgeStyle;rounded=0;orthogonalLoop=1;jettySize=auto;html=1;exitX=1;exitY=0.5;exitDx=0;exitDy=0;" parent="OOlYLd6TCuqCxdgVUlkU-596" source="OOlYLd6TCuqCxdgVUlkU-591" edge="1">
          <mxGeometry relative="1" as="geometry">
            <mxPoint x="627.5" y="222.71428571428555" as="targetPoint" />
          </mxGeometry>
        </mxCell>
        <mxCell id="OOlYLd6TCuqCxdgVUlkU-591" value="Styling" style="rounded=1;whiteSpace=wrap;html=1;" parent="OOlYLd6TCuqCxdgVUlkU-596" vertex="1">
          <mxGeometry x="1" y="210" width="114" height="25" as="geometry" />
        </mxCell>
        <mxCell id="OOlYLd6TCuqCxdgVUlkU-592" value="Profile Page" style="rounded=1;whiteSpace=wrap;html=1;fillColor=none;strokeColor=default;" parent="OOlYLd6TCuqCxdgVUlkU-596" vertex="1">
          <mxGeometry y="81" width="114" height="25" as="geometry" />
        </mxCell>
        <mxCell id="OOlYLd6TCuqCxdgVUlkU-595" value="&lt;u&gt;Customizations&lt;/u&gt;" style="text;html=1;align=center;verticalAlign=middle;resizable=0;points=[];autosize=1;strokeColor=none;fillColor=none;" parent="OOlYLd6TCuqCxdgVUlkU-596" vertex="1">
          <mxGeometry y="120" width="110" height="30" as="geometry" />
        </mxCell>
        <mxCell id="OOlYLd6TCuqCxdgVUlkU-852" style="edgeStyle=orthogonalEdgeStyle;rounded=0;orthogonalLoop=1;jettySize=auto;html=1;exitX=1;exitY=0.5;exitDx=0;exitDy=0;" parent="OOlYLd6TCuqCxdgVUlkU-382" source="OOlYLd6TCuqCxdgVUlkU-850" edge="1">
          <mxGeometry relative="1" as="geometry">
            <mxPoint x="659" y="-130" as="targetPoint" />
            <Array as="points">
              <mxPoint x="639" y="90" />
              <mxPoint x="639" y="-130" />
            </Array>
          </mxGeometry>
        </mxCell>
        <mxCell id="OOlYLd6TCuqCxdgVUlkU-850" value="Change password" style="rounded=1;whiteSpace=wrap;html=1;dashed=1;dashPattern=12 12;" parent="OOlYLd6TCuqCxdgVUlkU-382" vertex="1">
          <mxGeometry x="474" y="70" width="120" height="40" as="geometry" />
        </mxCell>
        <mxCell id="OOlYLd6TCuqCxdgVUlkU-851" value="Logout" style="rounded=1;whiteSpace=wrap;html=1;dashed=1;dashPattern=12 12;" parent="OOlYLd6TCuqCxdgVUlkU-382" vertex="1">
          <mxGeometry x="474" y="110" width="120" height="40" as="geometry" />
        </mxCell>
        <mxCell id="ygmrMFlOwkWCzzU3Cko4-7" value="published pages (0)" style="rounded=1;whiteSpace=wrap;html=1;" vertex="1" parent="OOlYLd6TCuqCxdgVUlkU-382">
          <mxGeometry x="209" y="140" width="81" height="40" as="geometry" />
        </mxCell>
        <mxCell id="ygmrMFlOwkWCzzU3Cko4-8" value="draft pages(0)" style="rounded=1;whiteSpace=wrap;html=1;" vertex="1" parent="OOlYLd6TCuqCxdgVUlkU-382">
          <mxGeometry x="313" y="140" width="81" height="40" as="geometry" />
        </mxCell>
        <mxCell id="OOlYLd6TCuqCxdgVUlkU-409" value="" style="group;" parent="1" vertex="1" connectable="0">
          <mxGeometry x="721" y="1200" width="620" height="354" as="geometry" />
        </mxCell>
        <mxCell id="OOlYLd6TCuqCxdgVUlkU-410" value="" style="rounded=0;whiteSpace=wrap;html=1;container=1;movable=0;resizable=0;rotatable=0;deletable=0;editable=0;locked=1;connectable=0;" parent="OOlYLd6TCuqCxdgVUlkU-409" vertex="1">
          <mxGeometry y="28" width="620" height="320" as="geometry" />
        </mxCell>
        <mxCell id="OOlYLd6TCuqCxdgVUlkU-411" value="User Dashboard: /pages" style="text;html=1;align=center;verticalAlign=middle;resizable=0;points=[];autosize=1;strokeColor=none;fillColor=none;" parent="OOlYLd6TCuqCxdgVUlkU-409" vertex="1">
          <mxGeometry x="21" width="150" height="30" as="geometry" />
        </mxCell>
        <mxCell id="OOlYLd6TCuqCxdgVUlkU-412" value="" style="endArrow=none;html=1;rounded=0;" parent="OOlYLd6TCuqCxdgVUlkU-409" edge="1">
          <mxGeometry width="50" height="50" relative="1" as="geometry">
            <mxPoint x="152" y="342.5" as="sourcePoint" />
            <mxPoint x="149" y="33.5" as="targetPoint" />
          </mxGeometry>
        </mxCell>
        <mxCell id="OOlYLd6TCuqCxdgVUlkU-413" value="Logo" style="rounded=1;whiteSpace=wrap;html=1;" parent="OOlYLd6TCuqCxdgVUlkU-409" vertex="1">
          <mxGeometry x="33" y="44" width="90" height="20" as="geometry" />
        </mxCell>
        <mxCell id="OOlYLd6TCuqCxdgVUlkU-418" value="" style="endArrow=none;html=1;rounded=0;" parent="OOlYLd6TCuqCxdgVUlkU-409" edge="1">
          <mxGeometry width="50" height="50" relative="1" as="geometry">
            <mxPoint y="75" as="sourcePoint" />
            <mxPoint x="620" y="75" as="targetPoint" />
          </mxGeometry>
        </mxCell>
        <mxCell id="OOlYLd6TCuqCxdgVUlkU-419" value="Pages" style="rounded=1;whiteSpace=wrap;html=1;" parent="OOlYLd6TCuqCxdgVUlkU-409" vertex="1">
          <mxGeometry x="179.5" y="42" width="120" height="16" as="geometry" />
        </mxCell>
        <mxCell id="OOlYLd6TCuqCxdgVUlkU-420" value="user name | logout" style="rounded=1;whiteSpace=wrap;html=1;" parent="OOlYLd6TCuqCxdgVUlkU-409" vertex="1">
          <mxGeometry x="474" y="44" width="120" height="16" as="geometry" />
        </mxCell>
        <mxCell id="OOlYLd6TCuqCxdgVUlkU-508" style="edgeStyle=orthogonalEdgeStyle;rounded=0;orthogonalLoop=1;jettySize=auto;html=1;" parent="OOlYLd6TCuqCxdgVUlkU-409" source="OOlYLd6TCuqCxdgVUlkU-424" edge="1">
          <mxGeometry relative="1" as="geometry">
            <mxPoint x="659" y="115.00000000000023" as="targetPoint" />
          </mxGeometry>
        </mxCell>
        <mxCell id="OOlYLd6TCuqCxdgVUlkU-424" value="Add new page" style="rounded=1;whiteSpace=wrap;html=1;" parent="OOlYLd6TCuqCxdgVUlkU-409" vertex="1">
          <mxGeometry x="189" y="100" width="141" height="30" as="geometry" />
        </mxCell>
        <mxCell id="OOlYLd6TCuqCxdgVUlkU-446" value="" style="group" parent="OOlYLd6TCuqCxdgVUlkU-409" vertex="1" connectable="0">
          <mxGeometry x="189" y="140" width="374" height="19" as="geometry" />
        </mxCell>
        <mxCell id="OOlYLd6TCuqCxdgVUlkU-447" value="Filters" style="rounded=0;whiteSpace=wrap;html=1;" parent="OOlYLd6TCuqCxdgVUlkU-446" vertex="1">
          <mxGeometry width="230" height="19" as="geometry" />
        </mxCell>
        <mxCell id="OOlYLd6TCuqCxdgVUlkU-448" value="Search Query" style="rounded=0;whiteSpace=wrap;html=1;" parent="OOlYLd6TCuqCxdgVUlkU-446" vertex="1">
          <mxGeometry x="236" width="110" height="19" as="geometry" />
        </mxCell>
        <mxCell id="OOlYLd6TCuqCxdgVUlkU-449" value="&lt;font style=&quot;font-size: 22px;&quot;&gt;*&lt;/font&gt;" style="rounded=0;whiteSpace=wrap;html=1;" parent="OOlYLd6TCuqCxdgVUlkU-446" vertex="1">
          <mxGeometry x="353" width="21" height="19" as="geometry" />
        </mxCell>
        <mxCell id="OOlYLd6TCuqCxdgVUlkU-470" value="" style="group" parent="OOlYLd6TCuqCxdgVUlkU-409" vertex="1" connectable="0">
          <mxGeometry x="179" y="171.25" width="376" height="49.25" as="geometry" />
        </mxCell>
        <mxCell id="OOlYLd6TCuqCxdgVUlkU-442" value="#1 |&amp;nbsp; Page Title | Slug | Other data | Status" style="rounded=0;whiteSpace=wrap;html=1;" parent="OOlYLd6TCuqCxdgVUlkU-470" vertex="1">
          <mxGeometry width="256" height="48" as="geometry" />
        </mxCell>
        <mxCell id="OOlYLd6TCuqCxdgVUlkU-445" value="Delete" style="rounded=0;whiteSpace=wrap;html=1;" parent="OOlYLd6TCuqCxdgVUlkU-470" vertex="1">
          <mxGeometry x="324" y="27.25" width="52" height="22" as="geometry" />
        </mxCell>
        <mxCell id="OOlYLd6TCuqCxdgVUlkU-555" style="edgeStyle=orthogonalEdgeStyle;rounded=0;orthogonalLoop=1;jettySize=auto;html=1;exitX=1;exitY=0.5;exitDx=0;exitDy=0;" parent="OOlYLd6TCuqCxdgVUlkU-470" source="OOlYLd6TCuqCxdgVUlkU-469" edge="1">
          <mxGeometry relative="1" as="geometry">
            <mxPoint x="480" y="408.75" as="targetPoint" />
            <Array as="points">
              <mxPoint x="460" y="11" />
              <mxPoint x="460" y="409" />
            </Array>
          </mxGeometry>
        </mxCell>
        <mxCell id="OOlYLd6TCuqCxdgVUlkU-469" value="Edit" style="rounded=0;whiteSpace=wrap;html=1;" parent="OOlYLd6TCuqCxdgVUlkU-470" vertex="1">
          <mxGeometry x="324" width="52" height="22" as="geometry" />
        </mxCell>
        <mxCell id="OOlYLd6TCuqCxdgVUlkU-588" style="edgeStyle=orthogonalEdgeStyle;rounded=0;orthogonalLoop=1;jettySize=auto;html=1;exitX=0;exitY=0.5;exitDx=0;exitDy=0;" parent="OOlYLd6TCuqCxdgVUlkU-409" source="OOlYLd6TCuqCxdgVUlkU-603" edge="1">
          <mxGeometry relative="1" as="geometry">
            <mxPoint x="-0.9999999999995453" y="560" as="targetPoint" />
            <mxPoint x="29" y="160" as="sourcePoint" />
            <Array as="points">
              <mxPoint x="-31" y="198" />
              <mxPoint x="-31" y="560" />
            </Array>
          </mxGeometry>
        </mxCell>
        <mxCell id="OOlYLd6TCuqCxdgVUlkU-597" value="" style="group" parent="OOlYLd6TCuqCxdgVUlkU-409" vertex="1" connectable="0">
          <mxGeometry x="29" y="104.25" width="115" height="235" as="geometry" />
        </mxCell>
        <mxCell id="OOlYLd6TCuqCxdgVUlkU-605" value="" style="group" parent="OOlYLd6TCuqCxdgVUlkU-597" vertex="1" connectable="0">
          <mxGeometry width="115" height="235" as="geometry" />
        </mxCell>
        <mxCell id="OOlYLd6TCuqCxdgVUlkU-598" value="Dashboard" style="rounded=1;whiteSpace=wrap;html=1;" parent="OOlYLd6TCuqCxdgVUlkU-605" vertex="1">
          <mxGeometry width="114" height="25" as="geometry" />
        </mxCell>
        <mxCell id="OOlYLd6TCuqCxdgVUlkU-599" value="Pages" style="rounded=1;whiteSpace=wrap;html=1;fillColor=#dae8fc;strokeColor=#6c8ebf;" parent="OOlYLd6TCuqCxdgVUlkU-605" vertex="1">
          <mxGeometry y="41" width="114" height="25" as="geometry" />
        </mxCell>
        <mxCell id="OOlYLd6TCuqCxdgVUlkU-600" value="Header" style="rounded=1;whiteSpace=wrap;html=1;" parent="OOlYLd6TCuqCxdgVUlkU-605" vertex="1">
          <mxGeometry y="150" width="114" height="25" as="geometry" />
        </mxCell>
        <mxCell id="OOlYLd6TCuqCxdgVUlkU-601" value="Footer" style="rounded=1;whiteSpace=wrap;html=1;" parent="OOlYLd6TCuqCxdgVUlkU-605" vertex="1">
          <mxGeometry x="1" y="180" width="114" height="25" as="geometry" />
        </mxCell>
        <mxCell id="OOlYLd6TCuqCxdgVUlkU-602" value="Styling" style="rounded=1;whiteSpace=wrap;html=1;" parent="OOlYLd6TCuqCxdgVUlkU-605" vertex="1">
          <mxGeometry x="1" y="210" width="114" height="25" as="geometry" />
        </mxCell>
        <mxCell id="OOlYLd6TCuqCxdgVUlkU-603" value="Profile Page" style="rounded=1;whiteSpace=wrap;html=1;" parent="OOlYLd6TCuqCxdgVUlkU-605" vertex="1">
          <mxGeometry y="81" width="114" height="25" as="geometry" />
        </mxCell>
        <mxCell id="OOlYLd6TCuqCxdgVUlkU-604" value="&lt;u&gt;Customizations&lt;/u&gt;" style="text;html=1;align=center;verticalAlign=middle;resizable=0;points=[];autosize=1;strokeColor=none;fillColor=none;" parent="OOlYLd6TCuqCxdgVUlkU-605" vertex="1">
          <mxGeometry y="120" width="110" height="30" as="geometry" />
        </mxCell>
        <mxCell id="ygmrMFlOwkWCzzU3Cko4-34" value="View" style="rounded=0;whiteSpace=wrap;html=1;" vertex="1" parent="OOlYLd6TCuqCxdgVUlkU-409">
          <mxGeometry x="443" y="184.88" width="52" height="22" as="geometry" />
        </mxCell>
        <mxCell id="ygmrMFlOwkWCzzU3Cko4-35" value="" style="group" vertex="1" connectable="0" parent="OOlYLd6TCuqCxdgVUlkU-409">
          <mxGeometry x="178" y="226" width="376" height="49.25" as="geometry" />
        </mxCell>
        <mxCell id="ygmrMFlOwkWCzzU3Cko4-36" value="#1 |&amp;nbsp; Page Title | Slug | Other data | Status" style="rounded=0;whiteSpace=wrap;html=1;" vertex="1" parent="ygmrMFlOwkWCzzU3Cko4-35">
          <mxGeometry width="256" height="48" as="geometry" />
        </mxCell>
        <mxCell id="ygmrMFlOwkWCzzU3Cko4-37" value="Delete" style="rounded=0;whiteSpace=wrap;html=1;" vertex="1" parent="ygmrMFlOwkWCzzU3Cko4-35">
          <mxGeometry x="324" y="27.25" width="52" height="22" as="geometry" />
        </mxCell>
        <mxCell id="ygmrMFlOwkWCzzU3Cko4-39" value="Edit" style="rounded=0;whiteSpace=wrap;html=1;" vertex="1" parent="ygmrMFlOwkWCzzU3Cko4-35">
          <mxGeometry x="324" width="52" height="22" as="geometry" />
        </mxCell>
        <mxCell id="ygmrMFlOwkWCzzU3Cko4-40" value="View" style="rounded=0;whiteSpace=wrap;html=1;" vertex="1" parent="OOlYLd6TCuqCxdgVUlkU-409">
          <mxGeometry x="443" y="239.63" width="52" height="22" as="geometry" />
        </mxCell>
        <mxCell id="ygmrMFlOwkWCzzU3Cko4-46" value="" style="group" vertex="1" connectable="0" parent="OOlYLd6TCuqCxdgVUlkU-409">
          <mxGeometry x="316" y="309.25" width="83" height="30" as="geometry" />
        </mxCell>
        <mxCell id="ygmrMFlOwkWCzzU3Cko4-41" value="" style="triangle;whiteSpace=wrap;html=1;" vertex="1" parent="ygmrMFlOwkWCzzU3Cko4-46">
          <mxGeometry x="69" y="7.75" width="14" height="15" as="geometry" />
        </mxCell>
        <mxCell id="ygmrMFlOwkWCzzU3Cko4-42" value="" style="triangle;whiteSpace=wrap;html=1;rotation=-180;" vertex="1" parent="ygmrMFlOwkWCzzU3Cko4-46">
          <mxGeometry y="7.75" width="14" height="15" as="geometry" />
        </mxCell>
        <mxCell id="ygmrMFlOwkWCzzU3Cko4-45" value="1/5" style="text;html=1;align=center;verticalAlign=middle;whiteSpace=wrap;rounded=0;" vertex="1" parent="ygmrMFlOwkWCzzU3Cko4-46">
          <mxGeometry x="12" width="60" height="30" as="geometry" />
        </mxCell>
        <mxCell id="OOlYLd6TCuqCxdgVUlkU-480" value="" style="group" parent="1" vertex="1" connectable="0">
          <mxGeometry x="1380" y="1200" width="620" height="355" as="geometry" />
        </mxCell>
        <mxCell id="OOlYLd6TCuqCxdgVUlkU-481" value="" style="rounded=0;whiteSpace=wrap;html=1;container=1;movable=0;resizable=0;rotatable=0;deletable=0;editable=0;locked=1;connectable=0;" parent="OOlYLd6TCuqCxdgVUlkU-480" vertex="1">
          <mxGeometry y="28" width="620" height="320" as="geometry" />
        </mxCell>
        <mxCell id="OOlYLd6TCuqCxdgVUlkU-482" value="User New Page: /pages/new" style="text;html=1;align=center;verticalAlign=middle;resizable=0;points=[];autosize=1;strokeColor=none;fillColor=none;" parent="OOlYLd6TCuqCxdgVUlkU-480" vertex="1">
          <mxGeometry x="6" width="180" height="30" as="geometry" />
        </mxCell>
        <mxCell id="OOlYLd6TCuqCxdgVUlkU-483" value="" style="endArrow=none;html=1;rounded=0;" parent="OOlYLd6TCuqCxdgVUlkU-480" edge="1">
          <mxGeometry width="50" height="50" relative="1" as="geometry">
            <mxPoint x="152" y="342.5" as="sourcePoint" />
            <mxPoint x="149" y="33.5" as="targetPoint" />
          </mxGeometry>
        </mxCell>
        <mxCell id="OOlYLd6TCuqCxdgVUlkU-484" value="Logo" style="rounded=1;whiteSpace=wrap;html=1;" parent="OOlYLd6TCuqCxdgVUlkU-480" vertex="1">
          <mxGeometry x="33" y="44" width="90" height="20" as="geometry" />
        </mxCell>
        <mxCell id="OOlYLd6TCuqCxdgVUlkU-487" value="" style="endArrow=none;html=1;rounded=0;" parent="OOlYLd6TCuqCxdgVUlkU-480" edge="1">
          <mxGeometry width="50" height="50" relative="1" as="geometry">
            <mxPoint y="90" as="sourcePoint" />
            <mxPoint x="620" y="90" as="targetPoint" />
          </mxGeometry>
        </mxCell>
        <mxCell id="OOlYLd6TCuqCxdgVUlkU-488" value="Add new page" style="rounded=1;whiteSpace=wrap;html=1;" parent="OOlYLd6TCuqCxdgVUlkU-480" vertex="1">
          <mxGeometry x="160" y="42" width="120" height="38" as="geometry" />
        </mxCell>
        <mxCell id="OOlYLd6TCuqCxdgVUlkU-489" value="user name | logout" style="rounded=1;whiteSpace=wrap;html=1;" parent="OOlYLd6TCuqCxdgVUlkU-480" vertex="1">
          <mxGeometry x="21" y="70" width="120" height="16" as="geometry" />
        </mxCell>
        <mxCell id="OOlYLd6TCuqCxdgVUlkU-510" value="Save as draft" style="rounded=1;whiteSpace=wrap;html=1;" parent="OOlYLd6TCuqCxdgVUlkU-480" vertex="1">
          <mxGeometry x="470" y="42" width="80" height="38" as="geometry" />
        </mxCell>
        <mxCell id="OOlYLd6TCuqCxdgVUlkU-511" value="Publish" style="rounded=1;whiteSpace=wrap;html=1;" parent="OOlYLd6TCuqCxdgVUlkU-480" vertex="1">
          <mxGeometry x="560" y="42" width="50.5" height="38" as="geometry" />
        </mxCell>
        <mxCell id="OOlYLd6TCuqCxdgVUlkU-512" value="Title" style="rounded=1;whiteSpace=wrap;html=1;" parent="OOlYLd6TCuqCxdgVUlkU-480" vertex="1">
          <mxGeometry x="186" y="107" width="404" height="38" as="geometry" />
        </mxCell>
        <mxCell id="OOlYLd6TCuqCxdgVUlkU-513" value="Slug" style="rounded=1;whiteSpace=wrap;html=1;" parent="OOlYLd6TCuqCxdgVUlkU-480" vertex="1">
          <mxGeometry x="186" y="153.5" width="364" height="38" as="geometry" />
        </mxCell>
        <mxCell id="OOlYLd6TCuqCxdgVUlkU-514" value="&lt;font style=&quot;font-size: 22px;&quot;&gt;*&lt;/font&gt;" style="rounded=0;whiteSpace=wrap;html=1;" parent="OOlYLd6TCuqCxdgVUlkU-480" vertex="1">
          <mxGeometry x="559.75" y="153.5" width="30.25" height="36.5" as="geometry" />
        </mxCell>
        <mxCell id="OOlYLd6TCuqCxdgVUlkU-515" value="Content" style="rounded=1;whiteSpace=wrap;html=1;" parent="OOlYLd6TCuqCxdgVUlkU-480" vertex="1">
          <mxGeometry x="186" y="200" width="404" height="70" as="geometry" />
        </mxCell>
        <mxCell id="OOlYLd6TCuqCxdgVUlkU-614" value="" style="group" parent="OOlYLd6TCuqCxdgVUlkU-480" vertex="1" connectable="0">
          <mxGeometry x="20" y="100" width="115" height="235" as="geometry" />
        </mxCell>
        <mxCell id="OOlYLd6TCuqCxdgVUlkU-615" value="Dashboard" style="rounded=1;whiteSpace=wrap;html=1;" parent="OOlYLd6TCuqCxdgVUlkU-614" vertex="1">
          <mxGeometry width="114" height="25" as="geometry" />
        </mxCell>
        <mxCell id="OOlYLd6TCuqCxdgVUlkU-616" value="Pages" style="rounded=1;whiteSpace=wrap;html=1;fillColor=#dae8fc;strokeColor=#6c8ebf;" parent="OOlYLd6TCuqCxdgVUlkU-614" vertex="1">
          <mxGeometry y="41" width="114" height="25" as="geometry" />
        </mxCell>
        <mxCell id="OOlYLd6TCuqCxdgVUlkU-617" value="Header" style="rounded=1;whiteSpace=wrap;html=1;" parent="OOlYLd6TCuqCxdgVUlkU-614" vertex="1">
          <mxGeometry y="150" width="114" height="25" as="geometry" />
        </mxCell>
        <mxCell id="OOlYLd6TCuqCxdgVUlkU-618" value="Footer" style="rounded=1;whiteSpace=wrap;html=1;" parent="OOlYLd6TCuqCxdgVUlkU-614" vertex="1">
          <mxGeometry x="1" y="180" width="114" height="25" as="geometry" />
        </mxCell>
        <mxCell id="OOlYLd6TCuqCxdgVUlkU-619" value="Styling" style="rounded=1;whiteSpace=wrap;html=1;" parent="OOlYLd6TCuqCxdgVUlkU-614" vertex="1">
          <mxGeometry x="1" y="210" width="114" height="25" as="geometry" />
        </mxCell>
        <mxCell id="OOlYLd6TCuqCxdgVUlkU-620" value="Profile Page" style="rounded=1;whiteSpace=wrap;html=1;" parent="OOlYLd6TCuqCxdgVUlkU-614" vertex="1">
          <mxGeometry y="81" width="114" height="25" as="geometry" />
        </mxCell>
        <mxCell id="OOlYLd6TCuqCxdgVUlkU-621" value="&lt;u&gt;Customizations&lt;/u&gt;" style="text;html=1;align=center;verticalAlign=middle;resizable=0;points=[];autosize=1;strokeColor=none;fillColor=none;" parent="OOlYLd6TCuqCxdgVUlkU-614" vertex="1">
          <mxGeometry y="120" width="110" height="30" as="geometry" />
        </mxCell>
        <mxCell id="OOlYLd6TCuqCxdgVUlkU-536" value="" style="group" parent="1" vertex="1" connectable="0">
          <mxGeometry x="1380" y="1580" width="620" height="354" as="geometry" />
        </mxCell>
        <mxCell id="OOlYLd6TCuqCxdgVUlkU-537" value="" style="rounded=0;whiteSpace=wrap;html=1;container=1;movable=0;resizable=0;rotatable=0;deletable=0;editable=0;locked=1;connectable=0;" parent="OOlYLd6TCuqCxdgVUlkU-536" vertex="1">
          <mxGeometry y="28" width="620" height="320" as="geometry" />
        </mxCell>
        <mxCell id="OOlYLd6TCuqCxdgVUlkU-538" value="User Edit Page: /pages/[pageId]" style="text;html=1;align=center;verticalAlign=middle;resizable=0;points=[];autosize=1;strokeColor=none;fillColor=none;" parent="OOlYLd6TCuqCxdgVUlkU-536" vertex="1">
          <mxGeometry x="1" width="190" height="30" as="geometry" />
        </mxCell>
        <mxCell id="OOlYLd6TCuqCxdgVUlkU-539" value="" style="endArrow=none;html=1;rounded=0;" parent="OOlYLd6TCuqCxdgVUlkU-536" edge="1">
          <mxGeometry width="50" height="50" relative="1" as="geometry">
            <mxPoint x="152" y="342.5" as="sourcePoint" />
            <mxPoint x="149" y="33.5" as="targetPoint" />
          </mxGeometry>
        </mxCell>
        <mxCell id="OOlYLd6TCuqCxdgVUlkU-540" value="Logo" style="rounded=1;whiteSpace=wrap;html=1;" parent="OOlYLd6TCuqCxdgVUlkU-536" vertex="1">
          <mxGeometry x="33" y="44" width="90" height="20" as="geometry" />
        </mxCell>
        <mxCell id="OOlYLd6TCuqCxdgVUlkU-543" value="" style="endArrow=none;html=1;rounded=0;" parent="OOlYLd6TCuqCxdgVUlkU-536" edge="1">
          <mxGeometry width="50" height="50" relative="1" as="geometry">
            <mxPoint y="90" as="sourcePoint" />
            <mxPoint x="620" y="90" as="targetPoint" />
          </mxGeometry>
        </mxCell>
        <mxCell id="OOlYLd6TCuqCxdgVUlkU-544" value="Page title" style="rounded=1;whiteSpace=wrap;html=1;" parent="OOlYLd6TCuqCxdgVUlkU-536" vertex="1">
          <mxGeometry x="160" y="42" width="120" height="38" as="geometry" />
        </mxCell>
        <mxCell id="OOlYLd6TCuqCxdgVUlkU-545" value="user name | logout" style="rounded=1;whiteSpace=wrap;html=1;" parent="OOlYLd6TCuqCxdgVUlkU-536" vertex="1">
          <mxGeometry x="21" y="70" width="120" height="16" as="geometry" />
        </mxCell>
        <mxCell id="OOlYLd6TCuqCxdgVUlkU-547" value="Save as draft" style="rounded=1;whiteSpace=wrap;html=1;" parent="OOlYLd6TCuqCxdgVUlkU-536" vertex="1">
          <mxGeometry x="470" y="42" width="80" height="38" as="geometry" />
        </mxCell>
        <mxCell id="OOlYLd6TCuqCxdgVUlkU-548" value="Publish/&lt;br&gt;Update" style="rounded=1;whiteSpace=wrap;html=1;" parent="OOlYLd6TCuqCxdgVUlkU-536" vertex="1">
          <mxGeometry x="560" y="42" width="50.5" height="38" as="geometry" />
        </mxCell>
        <mxCell id="OOlYLd6TCuqCxdgVUlkU-549" value="Title" style="rounded=1;whiteSpace=wrap;html=1;" parent="OOlYLd6TCuqCxdgVUlkU-536" vertex="1">
          <mxGeometry x="186" y="107" width="404" height="38" as="geometry" />
        </mxCell>
        <mxCell id="OOlYLd6TCuqCxdgVUlkU-550" value="Slug" style="rounded=1;whiteSpace=wrap;html=1;" parent="OOlYLd6TCuqCxdgVUlkU-536" vertex="1">
          <mxGeometry x="186" y="153.5" width="364" height="38" as="geometry" />
        </mxCell>
        <mxCell id="OOlYLd6TCuqCxdgVUlkU-551" value="&lt;font style=&quot;font-size: 22px;&quot;&gt;*&lt;/font&gt;" style="rounded=0;whiteSpace=wrap;html=1;" parent="OOlYLd6TCuqCxdgVUlkU-536" vertex="1">
          <mxGeometry x="559.75" y="153.5" width="30.25" height="36.5" as="geometry" />
        </mxCell>
        <mxCell id="OOlYLd6TCuqCxdgVUlkU-552" value="Content" style="rounded=1;whiteSpace=wrap;html=1;" parent="OOlYLd6TCuqCxdgVUlkU-536" vertex="1">
          <mxGeometry x="186" y="200" width="404" height="70" as="geometry" />
        </mxCell>
        <mxCell id="OOlYLd6TCuqCxdgVUlkU-558" value="preview" style="rounded=1;whiteSpace=wrap;html=1;" parent="OOlYLd6TCuqCxdgVUlkU-536" vertex="1">
          <mxGeometry x="380" y="44" width="80" height="38" as="geometry" />
        </mxCell>
        <mxCell id="OOlYLd6TCuqCxdgVUlkU-559" value="status" style="rounded=1;whiteSpace=wrap;html=1;" parent="OOlYLd6TCuqCxdgVUlkU-536" vertex="1">
          <mxGeometry x="290" y="49" width="60" height="28" as="geometry" />
        </mxCell>
        <mxCell id="OOlYLd6TCuqCxdgVUlkU-623" value="" style="group" parent="OOlYLd6TCuqCxdgVUlkU-536" vertex="1" connectable="0">
          <mxGeometry x="21" y="107" width="115" height="235" as="geometry" />
        </mxCell>
        <mxCell id="OOlYLd6TCuqCxdgVUlkU-624" value="Dashboard" style="rounded=1;whiteSpace=wrap;html=1;" parent="OOlYLd6TCuqCxdgVUlkU-623" vertex="1">
          <mxGeometry width="114" height="25" as="geometry" />
        </mxCell>
        <mxCell id="OOlYLd6TCuqCxdgVUlkU-625" value="Pages" style="rounded=1;whiteSpace=wrap;html=1;fillColor=#dae8fc;strokeColor=#6c8ebf;" parent="OOlYLd6TCuqCxdgVUlkU-623" vertex="1">
          <mxGeometry y="41" width="114" height="25" as="geometry" />
        </mxCell>
        <mxCell id="OOlYLd6TCuqCxdgVUlkU-626" value="Header" style="rounded=1;whiteSpace=wrap;html=1;" parent="OOlYLd6TCuqCxdgVUlkU-623" vertex="1">
          <mxGeometry y="150" width="114" height="25" as="geometry" />
        </mxCell>
        <mxCell id="OOlYLd6TCuqCxdgVUlkU-627" value="Footer" style="rounded=1;whiteSpace=wrap;html=1;" parent="OOlYLd6TCuqCxdgVUlkU-623" vertex="1">
          <mxGeometry x="1" y="180" width="114" height="25" as="geometry" />
        </mxCell>
        <mxCell id="OOlYLd6TCuqCxdgVUlkU-628" value="Styling" style="rounded=1;whiteSpace=wrap;html=1;" parent="OOlYLd6TCuqCxdgVUlkU-623" vertex="1">
          <mxGeometry x="1" y="210" width="114" height="25" as="geometry" />
        </mxCell>
        <mxCell id="OOlYLd6TCuqCxdgVUlkU-629" value="Profile Page" style="rounded=1;whiteSpace=wrap;html=1;" parent="OOlYLd6TCuqCxdgVUlkU-623" vertex="1">
          <mxGeometry y="81" width="114" height="25" as="geometry" />
        </mxCell>
        <mxCell id="OOlYLd6TCuqCxdgVUlkU-630" value="&lt;u&gt;Customizations&lt;/u&gt;" style="text;html=1;align=center;verticalAlign=middle;resizable=0;points=[];autosize=1;strokeColor=none;fillColor=none;" parent="OOlYLd6TCuqCxdgVUlkU-623" vertex="1">
          <mxGeometry y="120" width="110" height="30" as="geometry" />
        </mxCell>
        <mxCell id="OOlYLd6TCuqCxdgVUlkU-560" value="" style="group" parent="1" vertex="1" connectable="0">
          <mxGeometry x="720" y="1570" width="620" height="354" as="geometry" />
        </mxCell>
        <mxCell id="OOlYLd6TCuqCxdgVUlkU-561" value="" style="rounded=0;whiteSpace=wrap;html=1;container=1;movable=0;resizable=0;rotatable=0;deletable=0;editable=0;locked=1;connectable=0;" parent="OOlYLd6TCuqCxdgVUlkU-560" vertex="1">
          <mxGeometry y="28" width="620" height="320" as="geometry" />
        </mxCell>
        <mxCell id="OOlYLd6TCuqCxdgVUlkU-562" value="User Profile Page: /pages/profile (slug-&amp;gt;/}" style="text;html=1;align=center;verticalAlign=middle;resizable=0;points=[];autosize=1;strokeColor=none;fillColor=none;" parent="OOlYLd6TCuqCxdgVUlkU-560" vertex="1">
          <mxGeometry x="-10" y="-2" width="240" height="30" as="geometry" />
        </mxCell>
        <mxCell id="OOlYLd6TCuqCxdgVUlkU-563" value="" style="endArrow=none;html=1;rounded=0;" parent="OOlYLd6TCuqCxdgVUlkU-560" edge="1">
          <mxGeometry width="50" height="50" relative="1" as="geometry">
            <mxPoint x="152" y="342.5" as="sourcePoint" />
            <mxPoint x="149" y="33.5" as="targetPoint" />
          </mxGeometry>
        </mxCell>
        <mxCell id="OOlYLd6TCuqCxdgVUlkU-564" value="Logo" style="rounded=1;whiteSpace=wrap;html=1;" parent="OOlYLd6TCuqCxdgVUlkU-560" vertex="1">
          <mxGeometry x="33" y="44" width="90" height="20" as="geometry" />
        </mxCell>
        <mxCell id="OOlYLd6TCuqCxdgVUlkU-567" value="" style="endArrow=none;html=1;rounded=0;" parent="OOlYLd6TCuqCxdgVUlkU-560" edge="1">
          <mxGeometry width="50" height="50" relative="1" as="geometry">
            <mxPoint y="90" as="sourcePoint" />
            <mxPoint x="620" y="90" as="targetPoint" />
          </mxGeometry>
        </mxCell>
        <mxCell id="OOlYLd6TCuqCxdgVUlkU-568" value="Page title" style="rounded=1;whiteSpace=wrap;html=1;" parent="OOlYLd6TCuqCxdgVUlkU-560" vertex="1">
          <mxGeometry x="160" y="42" width="120" height="38" as="geometry" />
        </mxCell>
        <mxCell id="OOlYLd6TCuqCxdgVUlkU-569" value="user name | logout" style="rounded=1;whiteSpace=wrap;html=1;" parent="OOlYLd6TCuqCxdgVUlkU-560" vertex="1">
          <mxGeometry x="21" y="70" width="120" height="16" as="geometry" />
        </mxCell>
        <mxCell id="OOlYLd6TCuqCxdgVUlkU-572" value="Save" style="rounded=1;whiteSpace=wrap;html=1;" parent="OOlYLd6TCuqCxdgVUlkU-560" vertex="1">
          <mxGeometry x="560" y="42" width="50.5" height="38" as="geometry" />
        </mxCell>
        <mxCell id="OOlYLd6TCuqCxdgVUlkU-573" value="Title" style="rounded=1;whiteSpace=wrap;html=1;" parent="OOlYLd6TCuqCxdgVUlkU-560" vertex="1">
          <mxGeometry x="186" y="107" width="404" height="38" as="geometry" />
        </mxCell>
        <mxCell id="OOlYLd6TCuqCxdgVUlkU-576" value="Content" style="rounded=1;whiteSpace=wrap;html=1;" parent="OOlYLd6TCuqCxdgVUlkU-560" vertex="1">
          <mxGeometry x="186" y="160" width="404" height="70" as="geometry" />
        </mxCell>
        <mxCell id="OOlYLd6TCuqCxdgVUlkU-577" value="preview" style="rounded=1;whiteSpace=wrap;html=1;" parent="OOlYLd6TCuqCxdgVUlkU-560" vertex="1">
          <mxGeometry x="470" y="42" width="80" height="38" as="geometry" />
        </mxCell>
        <mxCell id="OOlYLd6TCuqCxdgVUlkU-606" value="" style="group" parent="OOlYLd6TCuqCxdgVUlkU-560" vertex="1" connectable="0">
          <mxGeometry x="20.5" y="100" width="115" height="235" as="geometry" />
        </mxCell>
        <mxCell id="OOlYLd6TCuqCxdgVUlkU-607" value="Dashboard" style="rounded=1;whiteSpace=wrap;html=1;" parent="OOlYLd6TCuqCxdgVUlkU-606" vertex="1">
          <mxGeometry width="114" height="25" as="geometry" />
        </mxCell>
        <mxCell id="OOlYLd6TCuqCxdgVUlkU-608" value="Pages" style="rounded=1;whiteSpace=wrap;html=1;" parent="OOlYLd6TCuqCxdgVUlkU-606" vertex="1">
          <mxGeometry y="41" width="114" height="25" as="geometry" />
        </mxCell>
        <mxCell id="OOlYLd6TCuqCxdgVUlkU-609" value="Header" style="rounded=1;whiteSpace=wrap;html=1;" parent="OOlYLd6TCuqCxdgVUlkU-606" vertex="1">
          <mxGeometry y="150" width="114" height="25" as="geometry" />
        </mxCell>
        <mxCell id="OOlYLd6TCuqCxdgVUlkU-610" value="Footer" style="rounded=1;whiteSpace=wrap;html=1;" parent="OOlYLd6TCuqCxdgVUlkU-606" vertex="1">
          <mxGeometry x="1" y="180" width="114" height="25" as="geometry" />
        </mxCell>
        <mxCell id="OOlYLd6TCuqCxdgVUlkU-611" value="Styling" style="rounded=1;whiteSpace=wrap;html=1;" parent="OOlYLd6TCuqCxdgVUlkU-606" vertex="1">
          <mxGeometry x="1" y="210" width="114" height="25" as="geometry" />
        </mxCell>
        <mxCell id="OOlYLd6TCuqCxdgVUlkU-612" value="Profile Page" style="rounded=1;whiteSpace=wrap;html=1;fillColor=#dae8fc;strokeColor=#6c8ebf;" parent="OOlYLd6TCuqCxdgVUlkU-606" vertex="1">
          <mxGeometry y="81" width="114" height="25" as="geometry" />
        </mxCell>
        <mxCell id="OOlYLd6TCuqCxdgVUlkU-613" value="&lt;u&gt;Customizations&lt;/u&gt;" style="text;html=1;align=center;verticalAlign=middle;resizable=0;points=[];autosize=1;strokeColor=none;fillColor=none;" parent="OOlYLd6TCuqCxdgVUlkU-606" vertex="1">
          <mxGeometry y="120" width="110" height="30" as="geometry" />
        </mxCell>
        <mxCell id="OOlYLd6TCuqCxdgVUlkU-631" value="" style="group" parent="1" vertex="1" connectable="0">
          <mxGeometry x="1370" y="830" width="620" height="354" as="geometry" />
        </mxCell>
        <mxCell id="OOlYLd6TCuqCxdgVUlkU-632" value="" style="rounded=0;whiteSpace=wrap;html=1;container=1;movable=0;resizable=0;rotatable=0;deletable=0;editable=0;locked=1;connectable=0;" parent="OOlYLd6TCuqCxdgVUlkU-631" vertex="1">
          <mxGeometry y="28" width="620" height="320" as="geometry" />
        </mxCell>
        <mxCell id="OOlYLd6TCuqCxdgVUlkU-633" value="Customization: Styling: /styling" style="text;html=1;align=center;verticalAlign=middle;resizable=0;points=[];autosize=1;strokeColor=none;fillColor=none;" parent="OOlYLd6TCuqCxdgVUlkU-631" vertex="1">
          <mxGeometry x="1" width="190" height="30" as="geometry" />
        </mxCell>
        <mxCell id="OOlYLd6TCuqCxdgVUlkU-634" value="" style="endArrow=none;html=1;rounded=0;" parent="OOlYLd6TCuqCxdgVUlkU-631" edge="1">
          <mxGeometry width="50" height="50" relative="1" as="geometry">
            <mxPoint x="152" y="342.5" as="sourcePoint" />
            <mxPoint x="149" y="33.5" as="targetPoint" />
          </mxGeometry>
        </mxCell>
        <mxCell id="OOlYLd6TCuqCxdgVUlkU-635" value="Logo" style="rounded=1;whiteSpace=wrap;html=1;" parent="OOlYLd6TCuqCxdgVUlkU-631" vertex="1">
          <mxGeometry x="33" y="44" width="90" height="20" as="geometry" />
        </mxCell>
        <mxCell id="OOlYLd6TCuqCxdgVUlkU-639" value="" style="endArrow=none;html=1;rounded=0;" parent="OOlYLd6TCuqCxdgVUlkU-631" edge="1">
          <mxGeometry width="50" height="50" relative="1" as="geometry">
            <mxPoint y="96" as="sourcePoint" />
            <mxPoint x="620" y="96" as="targetPoint" />
            <Array as="points">
              <mxPoint x="310" y="96" />
            </Array>
          </mxGeometry>
        </mxCell>
        <mxCell id="OOlYLd6TCuqCxdgVUlkU-640" value="Styling" style="rounded=1;whiteSpace=wrap;html=1;" parent="OOlYLd6TCuqCxdgVUlkU-631" vertex="1">
          <mxGeometry x="179.5" y="42" width="120.5" height="38" as="geometry" />
        </mxCell>
        <mxCell id="OOlYLd6TCuqCxdgVUlkU-641" value="user name | logout" style="rounded=1;whiteSpace=wrap;html=1;" parent="OOlYLd6TCuqCxdgVUlkU-631" vertex="1">
          <mxGeometry x="16.5" y="70" width="120" height="16" as="geometry" />
        </mxCell>
        <mxCell id="OOlYLd6TCuqCxdgVUlkU-644" value="" style="group" parent="OOlYLd6TCuqCxdgVUlkU-631" vertex="1" connectable="0">
          <mxGeometry x="21.5" y="100" width="115" height="235" as="geometry" />
        </mxCell>
        <mxCell id="OOlYLd6TCuqCxdgVUlkU-645" value="Dashboard" style="rounded=1;whiteSpace=wrap;html=1;" parent="OOlYLd6TCuqCxdgVUlkU-644" vertex="1">
          <mxGeometry width="114" height="25" as="geometry" />
        </mxCell>
        <mxCell id="OOlYLd6TCuqCxdgVUlkU-646" value="Pages" style="rounded=1;whiteSpace=wrap;html=1;" parent="OOlYLd6TCuqCxdgVUlkU-644" vertex="1">
          <mxGeometry y="41" width="114" height="25" as="geometry" />
        </mxCell>
        <mxCell id="OOlYLd6TCuqCxdgVUlkU-647" value="Header" style="rounded=1;whiteSpace=wrap;html=1;" parent="OOlYLd6TCuqCxdgVUlkU-644" vertex="1">
          <mxGeometry y="150" width="114" height="25" as="geometry" />
        </mxCell>
        <mxCell id="OOlYLd6TCuqCxdgVUlkU-648" value="Footer" style="rounded=1;whiteSpace=wrap;html=1;" parent="OOlYLd6TCuqCxdgVUlkU-644" vertex="1">
          <mxGeometry x="1" y="180" width="114" height="25" as="geometry" />
        </mxCell>
        <mxCell id="OOlYLd6TCuqCxdgVUlkU-649" value="Styling" style="rounded=1;whiteSpace=wrap;html=1;fillColor=#dae8fc;strokeColor=#6c8ebf;" parent="OOlYLd6TCuqCxdgVUlkU-644" vertex="1">
          <mxGeometry x="1" y="210" width="114" height="25" as="geometry" />
        </mxCell>
        <mxCell id="OOlYLd6TCuqCxdgVUlkU-650" value="Profile Page" style="rounded=1;whiteSpace=wrap;html=1;fillColor=none;strokeColor=default;" parent="OOlYLd6TCuqCxdgVUlkU-644" vertex="1">
          <mxGeometry y="81" width="114" height="25" as="geometry" />
        </mxCell>
        <mxCell id="OOlYLd6TCuqCxdgVUlkU-651" value="&lt;u&gt;Customizations&lt;/u&gt;" style="text;html=1;align=center;verticalAlign=middle;resizable=0;points=[];autosize=1;strokeColor=none;fillColor=none;" parent="OOlYLd6TCuqCxdgVUlkU-644" vertex="1">
          <mxGeometry y="120" width="110" height="30" as="geometry" />
        </mxCell>
        <mxCell id="OOlYLd6TCuqCxdgVUlkU-653" value="Select font" style="rounded=1;whiteSpace=wrap;html=1;" parent="OOlYLd6TCuqCxdgVUlkU-631" vertex="1">
          <mxGeometry x="186" y="120" width="204" height="25" as="geometry" />
        </mxCell>
        <mxCell id="OOlYLd6TCuqCxdgVUlkU-654" value="INTER&amp;nbsp;" style="rounded=1;whiteSpace=wrap;html=1;" parent="OOlYLd6TCuqCxdgVUlkU-631" vertex="1">
          <mxGeometry x="410" y="120" width="160" height="25" as="geometry" />
        </mxCell>
        <mxCell id="OOlYLd6TCuqCxdgVUlkU-655" value="" style="triangle;whiteSpace=wrap;html=1;rotation=90;fillColor=#000000;" parent="OOlYLd6TCuqCxdgVUlkU-631" vertex="1">
          <mxGeometry x="544" y="127.5" width="6" height="10" as="geometry" />
        </mxCell>
        <mxCell id="OOlYLd6TCuqCxdgVUlkU-656" value="Save" style="rounded=1;whiteSpace=wrap;html=1;" parent="OOlYLd6TCuqCxdgVUlkU-631" vertex="1">
          <mxGeometry x="520" y="42" width="70.5" height="38" as="geometry" />
        </mxCell>
        <mxCell id="OOlYLd6TCuqCxdgVUlkU-657" value="Reset to default" style="rounded=1;whiteSpace=wrap;html=1;" parent="OOlYLd6TCuqCxdgVUlkU-631" vertex="1">
          <mxGeometry x="410" y="43" width="100" height="36" as="geometry" />
        </mxCell>
        <mxCell id="OOlYLd6TCuqCxdgVUlkU-658" value="H1(#)" style="rounded=1;whiteSpace=wrap;html=1;" parent="OOlYLd6TCuqCxdgVUlkU-631" vertex="1">
          <mxGeometry x="186" y="180" width="124" height="25" as="geometry" />
        </mxCell>
        <mxCell id="OOlYLd6TCuqCxdgVUlkU-659" value="20px" style="rounded=1;whiteSpace=wrap;html=1;" parent="OOlYLd6TCuqCxdgVUlkU-631" vertex="1">
          <mxGeometry x="330" y="180" width="110" height="25.5" as="geometry" />
        </mxCell>
        <mxCell id="OOlYLd6TCuqCxdgVUlkU-660" value="#ff0000" style="rounded=1;whiteSpace=wrap;html=1;" parent="OOlYLd6TCuqCxdgVUlkU-631" vertex="1">
          <mxGeometry x="470" y="180" width="90" height="25" as="geometry" />
        </mxCell>
        <mxCell id="OOlYLd6TCuqCxdgVUlkU-661" value="H2 (##)" style="rounded=1;whiteSpace=wrap;html=1;" parent="OOlYLd6TCuqCxdgVUlkU-631" vertex="1">
          <mxGeometry x="186" y="215.5" width="124" height="25" as="geometry" />
        </mxCell>
        <mxCell id="OOlYLd6TCuqCxdgVUlkU-662" value="20px" style="rounded=1;whiteSpace=wrap;html=1;" parent="OOlYLd6TCuqCxdgVUlkU-631" vertex="1">
          <mxGeometry x="330" y="215.5" width="110" height="25" as="geometry" />
        </mxCell>
        <mxCell id="OOlYLd6TCuqCxdgVUlkU-663" value="#ff0000" style="rounded=1;whiteSpace=wrap;html=1;" parent="OOlYLd6TCuqCxdgVUlkU-631" vertex="1">
          <mxGeometry x="470" y="215.5" width="90" height="25" as="geometry" />
        </mxCell>
        <mxCell id="OOlYLd6TCuqCxdgVUlkU-664" value="TAG&amp;nbsp;&lt;span style=&quot;white-space: pre;&quot;&gt;&#x9;&lt;/span&gt;&lt;span style=&quot;white-space: pre;&quot;&gt;&#x9;&lt;/span&gt;&lt;span style=&quot;white-space: pre;&quot;&gt;&#x9;&lt;/span&gt;|&amp;nbsp;&lt;span style=&quot;white-space: pre;&quot;&gt;&#x9;&lt;/span&gt;&lt;span style=&quot;white-space: pre;&quot;&gt;&#x9;&lt;/span&gt;Font Size&amp;nbsp;&lt;span style=&quot;white-space: pre;&quot;&gt;&#x9;&lt;/span&gt;&lt;span style=&quot;white-space: pre;&quot;&gt;&#x9;&lt;/span&gt;|&lt;span style=&quot;white-space: pre;&quot;&gt;&#x9;&lt;/span&gt;&amp;nbsp;&amp;nbsp;&lt;span style=&quot;white-space: pre;&quot;&gt;&#x9;&lt;/span&gt;Color" style="rounded=1;whiteSpace=wrap;html=1;" parent="OOlYLd6TCuqCxdgVUlkU-631" vertex="1">
          <mxGeometry x="186" y="160" width="374" height="15" as="geometry" />
        </mxCell>
        <mxCell id="OOlYLd6TCuqCxdgVUlkU-665" value="....................................." style="rounded=1;whiteSpace=wrap;html=1;" parent="OOlYLd6TCuqCxdgVUlkU-631" vertex="1">
          <mxGeometry x="186" y="250" width="374" height="15" as="geometry" />
        </mxCell>
        <mxCell id="OOlYLd6TCuqCxdgVUlkU-666" value="" style="group" parent="1" vertex="1" connectable="0">
          <mxGeometry x="50" y="860" width="620" height="354" as="geometry" />
        </mxCell>
        <mxCell id="OOlYLd6TCuqCxdgVUlkU-667" value="" style="rounded=0;whiteSpace=wrap;html=1;container=1;movable=0;resizable=0;rotatable=0;deletable=0;editable=0;locked=1;connectable=0;" parent="OOlYLd6TCuqCxdgVUlkU-666" vertex="1">
          <mxGeometry y="28" width="620" height="320" as="geometry" />
        </mxCell>
        <mxCell id="OOlYLd6TCuqCxdgVUlkU-668" value="Customization: Footer: /header" style="text;html=1;align=center;verticalAlign=middle;resizable=0;points=[];autosize=1;strokeColor=none;fillColor=none;" parent="OOlYLd6TCuqCxdgVUlkU-666" vertex="1">
          <mxGeometry x="1" width="190" height="30" as="geometry" />
        </mxCell>
        <mxCell id="OOlYLd6TCuqCxdgVUlkU-669" value="" style="endArrow=none;html=1;rounded=0;" parent="OOlYLd6TCuqCxdgVUlkU-666" edge="1">
          <mxGeometry width="50" height="50" relative="1" as="geometry">
            <mxPoint x="152" y="342.5" as="sourcePoint" />
            <mxPoint x="149" y="33.5" as="targetPoint" />
          </mxGeometry>
        </mxCell>
        <mxCell id="OOlYLd6TCuqCxdgVUlkU-670" value="Logo" style="rounded=1;whiteSpace=wrap;html=1;" parent="OOlYLd6TCuqCxdgVUlkU-666" vertex="1">
          <mxGeometry x="33" y="44" width="90" height="20" as="geometry" />
        </mxCell>
        <mxCell id="OOlYLd6TCuqCxdgVUlkU-673" value="user name | logout" style="rounded=1;whiteSpace=wrap;html=1;" parent="OOlYLd6TCuqCxdgVUlkU-666" vertex="1">
          <mxGeometry x="16.5" y="70" width="120" height="16" as="geometry" />
        </mxCell>
        <mxCell id="OOlYLd6TCuqCxdgVUlkU-674" value="" style="group" parent="OOlYLd6TCuqCxdgVUlkU-666" vertex="1" connectable="0">
          <mxGeometry x="21.5" y="100" width="115" height="235" as="geometry" />
        </mxCell>
        <mxCell id="OOlYLd6TCuqCxdgVUlkU-675" value="Dashboard" style="rounded=1;whiteSpace=wrap;html=1;" parent="OOlYLd6TCuqCxdgVUlkU-674" vertex="1">
          <mxGeometry width="114" height="25" as="geometry" />
        </mxCell>
        <mxCell id="OOlYLd6TCuqCxdgVUlkU-676" value="Pages" style="rounded=1;whiteSpace=wrap;html=1;" parent="OOlYLd6TCuqCxdgVUlkU-674" vertex="1">
          <mxGeometry y="41" width="114" height="25" as="geometry" />
        </mxCell>
        <mxCell id="OOlYLd6TCuqCxdgVUlkU-677" value="Header" style="rounded=1;whiteSpace=wrap;html=1;fillColor=#dae8fc;strokeColor=#6c8ebf;" parent="OOlYLd6TCuqCxdgVUlkU-674" vertex="1">
          <mxGeometry y="150" width="114" height="25" as="geometry" />
        </mxCell>
        <mxCell id="OOlYLd6TCuqCxdgVUlkU-678" value="Footer" style="rounded=1;whiteSpace=wrap;html=1;" parent="OOlYLd6TCuqCxdgVUlkU-674" vertex="1">
          <mxGeometry x="1" y="180" width="114" height="25" as="geometry" />
        </mxCell>
        <mxCell id="OOlYLd6TCuqCxdgVUlkU-679" value="Styling" style="rounded=1;whiteSpace=wrap;html=1;" parent="OOlYLd6TCuqCxdgVUlkU-674" vertex="1">
          <mxGeometry x="1" y="210" width="114" height="25" as="geometry" />
        </mxCell>
        <mxCell id="OOlYLd6TCuqCxdgVUlkU-680" value="Profile Page" style="rounded=1;whiteSpace=wrap;html=1;fillColor=none;strokeColor=default;" parent="OOlYLd6TCuqCxdgVUlkU-674" vertex="1">
          <mxGeometry y="81" width="114" height="25" as="geometry" />
        </mxCell>
        <mxCell id="OOlYLd6TCuqCxdgVUlkU-681" value="&lt;u&gt;Customizations&lt;/u&gt;" style="text;html=1;align=center;verticalAlign=middle;resizable=0;points=[];autosize=1;strokeColor=none;fillColor=none;" parent="OOlYLd6TCuqCxdgVUlkU-674" vertex="1">
          <mxGeometry y="120" width="110" height="30" as="geometry" />
        </mxCell>
        <mxCell id="OOlYLd6TCuqCxdgVUlkU-704" value="Site Title" style="rounded=1;whiteSpace=wrap;html=1;" parent="OOlYLd6TCuqCxdgVUlkU-666" vertex="1">
          <mxGeometry x="170" y="64" width="290" height="17.5" as="geometry" />
        </mxCell>
        <mxCell id="OOlYLd6TCuqCxdgVUlkU-706" value="Navbar Links" style="rounded=1;whiteSpace=wrap;html=1;" parent="OOlYLd6TCuqCxdgVUlkU-666" vertex="1">
          <mxGeometry x="174.12" y="155" width="285.88" height="26.25" as="geometry" />
        </mxCell>
        <mxCell id="OOlYLd6TCuqCxdgVUlkU-707" value="Add Link" style="rounded=1;whiteSpace=wrap;html=1;" parent="OOlYLd6TCuqCxdgVUlkU-666" vertex="1">
          <mxGeometry x="482.31" y="155" width="90" height="26.25" as="geometry" />
        </mxCell>
        <mxCell id="OOlYLd6TCuqCxdgVUlkU-709" value="Title" style="rounded=1;whiteSpace=wrap;html=1;" parent="OOlYLd6TCuqCxdgVUlkU-666" vertex="1">
          <mxGeometry x="174.12" y="190.62" width="110.5" height="26.25" as="geometry" />
        </mxCell>
        <mxCell id="OOlYLd6TCuqCxdgVUlkU-711" value="Link" style="rounded=1;whiteSpace=wrap;html=1;" parent="OOlYLd6TCuqCxdgVUlkU-666" vertex="1">
          <mxGeometry x="304.62" y="190.62" width="110.5" height="26.25" as="geometry" />
        </mxCell>
        <mxCell id="OOlYLd6TCuqCxdgVUlkU-712" value="Delete" style="rounded=1;whiteSpace=wrap;html=1;fillColor=#f8cecc;strokeColor=#b85450;" parent="OOlYLd6TCuqCxdgVUlkU-666" vertex="1">
          <mxGeometry x="444.62" y="190.62" width="70" height="26.25" as="geometry" />
        </mxCell>
        <mxCell id="OOlYLd6TCuqCxdgVUlkU-713" value="Title" style="rounded=1;whiteSpace=wrap;html=1;" parent="OOlYLd6TCuqCxdgVUlkU-666" vertex="1">
          <mxGeometry x="174.62" y="230.62" width="110.5" height="26.25" as="geometry" />
        </mxCell>
        <mxCell id="OOlYLd6TCuqCxdgVUlkU-714" value="Link" style="rounded=1;whiteSpace=wrap;html=1;" parent="OOlYLd6TCuqCxdgVUlkU-666" vertex="1">
          <mxGeometry x="305.12" y="230.62" width="110.5" height="26.25" as="geometry" />
        </mxCell>
        <mxCell id="OOlYLd6TCuqCxdgVUlkU-715" value="Delete" style="rounded=1;whiteSpace=wrap;html=1;fillColor=#f8cecc;strokeColor=#b85450;" parent="OOlYLd6TCuqCxdgVUlkU-666" vertex="1">
          <mxGeometry x="445.12" y="230.62" width="70" height="26.25" as="geometry" />
        </mxCell>
        <mxCell id="ygmrMFlOwkWCzzU3Cko4-9" value="Site Logo (url)" style="rounded=1;whiteSpace=wrap;html=1;" vertex="1" parent="OOlYLd6TCuqCxdgVUlkU-666">
          <mxGeometry x="170" y="90.62" width="290" height="20" as="geometry" />
        </mxCell>
        <mxCell id="ygmrMFlOwkWCzzU3Cko4-10" value="Search for pages with tile and slug" style="rounded=1;whiteSpace=wrap;html=1;" vertex="1" parent="OOlYLd6TCuqCxdgVUlkU-666">
          <mxGeometry x="170" y="117.62" width="290" height="20" as="geometry" />
        </mxCell>
        <mxCell id="ygmrMFlOwkWCzzU3Cko4-11" value="Add another link" style="rounded=1;whiteSpace=wrap;html=1;" vertex="1" parent="OOlYLd6TCuqCxdgVUlkU-666">
          <mxGeometry x="180" y="280" width="110.5" height="26.25" as="geometry" />
        </mxCell>
        <mxCell id="ygmrMFlOwkWCzzU3Cko4-12" value="Update Links" style="rounded=1;whiteSpace=wrap;html=1;" vertex="1" parent="OOlYLd6TCuqCxdgVUlkU-666">
          <mxGeometry x="304.62" y="280" width="110.5" height="26.25" as="geometry" />
        </mxCell>
        <mxCell id="ygmrMFlOwkWCzzU3Cko4-14" value="update" style="rounded=1;whiteSpace=wrap;html=1;" vertex="1" parent="OOlYLd6TCuqCxdgVUlkU-666">
          <mxGeometry x="480" y="64" width="94.62" height="17.5" as="geometry" />
        </mxCell>
        <mxCell id="ygmrMFlOwkWCzzU3Cko4-15" value="update" style="rounded=1;whiteSpace=wrap;html=1;" vertex="1" parent="OOlYLd6TCuqCxdgVUlkU-666">
          <mxGeometry x="480" y="90.62" width="94.62" height="17.5" as="geometry" />
        </mxCell>
        <mxCell id="ygmrMFlOwkWCzzU3Cko4-16" value="update" style="rounded=1;whiteSpace=wrap;html=1;" vertex="1" parent="OOlYLd6TCuqCxdgVUlkU-666">
          <mxGeometry x="480" y="120.12" width="94.62" height="17.5" as="geometry" />
        </mxCell>
        <mxCell id="OOlYLd6TCuqCxdgVUlkU-717" value="" style="group" parent="1" vertex="1" connectable="0">
          <mxGeometry x="60" y="1260" width="620" height="354" as="geometry" />
        </mxCell>
        <mxCell id="OOlYLd6TCuqCxdgVUlkU-718" value="" style="rounded=0;whiteSpace=wrap;html=1;container=1;movable=0;resizable=0;rotatable=0;deletable=0;editable=0;locked=1;connectable=0;" parent="OOlYLd6TCuqCxdgVUlkU-717" vertex="1">
          <mxGeometry y="28" width="620" height="320" as="geometry" />
        </mxCell>
        <mxCell id="OOlYLd6TCuqCxdgVUlkU-719" value="Customization: Footer: /footer" style="text;html=1;align=center;verticalAlign=middle;resizable=0;points=[];autosize=1;strokeColor=none;fillColor=none;" parent="OOlYLd6TCuqCxdgVUlkU-717" vertex="1">
          <mxGeometry x="6" width="180" height="30" as="geometry" />
        </mxCell>
        <mxCell id="OOlYLd6TCuqCxdgVUlkU-720" value="" style="endArrow=none;html=1;rounded=0;" parent="OOlYLd6TCuqCxdgVUlkU-717" edge="1">
          <mxGeometry width="50" height="50" relative="1" as="geometry">
            <mxPoint x="152" y="342.5" as="sourcePoint" />
            <mxPoint x="149" y="33.5" as="targetPoint" />
          </mxGeometry>
        </mxCell>
        <mxCell id="OOlYLd6TCuqCxdgVUlkU-721" value="Logo" style="rounded=1;whiteSpace=wrap;html=1;" parent="OOlYLd6TCuqCxdgVUlkU-717" vertex="1">
          <mxGeometry x="33" y="44" width="90" height="20" as="geometry" />
        </mxCell>
        <mxCell id="OOlYLd6TCuqCxdgVUlkU-722" value="" style="endArrow=none;html=1;rounded=0;" parent="OOlYLd6TCuqCxdgVUlkU-717" edge="1">
          <mxGeometry width="50" height="50" relative="1" as="geometry">
            <mxPoint y="96" as="sourcePoint" />
            <mxPoint x="620" y="96" as="targetPoint" />
            <Array as="points">
              <mxPoint x="310" y="96" />
            </Array>
          </mxGeometry>
        </mxCell>
        <mxCell id="OOlYLd6TCuqCxdgVUlkU-723" value="Footer" style="rounded=1;whiteSpace=wrap;html=1;" parent="OOlYLd6TCuqCxdgVUlkU-717" vertex="1">
          <mxGeometry x="179.5" y="42" width="120.5" height="38" as="geometry" />
        </mxCell>
        <mxCell id="OOlYLd6TCuqCxdgVUlkU-724" value="user name | logout" style="rounded=1;whiteSpace=wrap;html=1;" parent="OOlYLd6TCuqCxdgVUlkU-717" vertex="1">
          <mxGeometry x="16.5" y="70" width="120" height="16" as="geometry" />
        </mxCell>
        <mxCell id="OOlYLd6TCuqCxdgVUlkU-725" value="" style="group" parent="OOlYLd6TCuqCxdgVUlkU-717" vertex="1" connectable="0">
          <mxGeometry x="21.5" y="100" width="115" height="235" as="geometry" />
        </mxCell>
        <mxCell id="OOlYLd6TCuqCxdgVUlkU-726" value="Dashboard" style="rounded=1;whiteSpace=wrap;html=1;" parent="OOlYLd6TCuqCxdgVUlkU-725" vertex="1">
          <mxGeometry width="114" height="25" as="geometry" />
        </mxCell>
        <mxCell id="OOlYLd6TCuqCxdgVUlkU-727" value="Pages" style="rounded=1;whiteSpace=wrap;html=1;" parent="OOlYLd6TCuqCxdgVUlkU-725" vertex="1">
          <mxGeometry y="41" width="114" height="25" as="geometry" />
        </mxCell>
        <mxCell id="OOlYLd6TCuqCxdgVUlkU-728" value="Header" style="rounded=1;whiteSpace=wrap;html=1;" parent="OOlYLd6TCuqCxdgVUlkU-725" vertex="1">
          <mxGeometry y="150" width="114" height="25" as="geometry" />
        </mxCell>
        <mxCell id="OOlYLd6TCuqCxdgVUlkU-729" value="Footer" style="rounded=1;whiteSpace=wrap;html=1;fillColor=#dae8fc;strokeColor=#6c8ebf;" parent="OOlYLd6TCuqCxdgVUlkU-725" vertex="1">
          <mxGeometry x="1" y="180" width="114" height="25" as="geometry" />
        </mxCell>
        <mxCell id="OOlYLd6TCuqCxdgVUlkU-730" value="Styling" style="rounded=1;whiteSpace=wrap;html=1;" parent="OOlYLd6TCuqCxdgVUlkU-725" vertex="1">
          <mxGeometry x="1" y="210" width="114" height="25" as="geometry" />
        </mxCell>
        <mxCell id="OOlYLd6TCuqCxdgVUlkU-731" value="Profile Page" style="rounded=1;whiteSpace=wrap;html=1;fillColor=none;strokeColor=default;" parent="OOlYLd6TCuqCxdgVUlkU-725" vertex="1">
          <mxGeometry y="81" width="114" height="25" as="geometry" />
        </mxCell>
        <mxCell id="OOlYLd6TCuqCxdgVUlkU-732" value="&lt;u&gt;Customizations&lt;/u&gt;" style="text;html=1;align=center;verticalAlign=middle;resizable=0;points=[];autosize=1;strokeColor=none;fillColor=none;" parent="OOlYLd6TCuqCxdgVUlkU-725" vertex="1">
          <mxGeometry y="120" width="110" height="30" as="geometry" />
        </mxCell>
        <mxCell id="OOlYLd6TCuqCxdgVUlkU-733" value="Save" style="rounded=1;whiteSpace=wrap;html=1;" parent="OOlYLd6TCuqCxdgVUlkU-717" vertex="1">
          <mxGeometry x="520" y="42" width="70.5" height="38" as="geometry" />
        </mxCell>
        <mxCell id="OOlYLd6TCuqCxdgVUlkU-734" value="Reset to default" style="rounded=1;whiteSpace=wrap;html=1;" parent="OOlYLd6TCuqCxdgVUlkU-717" vertex="1">
          <mxGeometry x="410" y="43" width="100" height="36" as="geometry" />
        </mxCell>
        <mxCell id="OOlYLd6TCuqCxdgVUlkU-737" value="Social Links" style="rounded=1;whiteSpace=wrap;html=1;" parent="OOlYLd6TCuqCxdgVUlkU-717" vertex="1">
          <mxGeometry x="179.5" y="193.75" width="250.5" height="26.25" as="geometry" />
        </mxCell>
        <mxCell id="OOlYLd6TCuqCxdgVUlkU-738" value="Add Link" style="rounded=1;whiteSpace=wrap;html=1;" parent="OOlYLd6TCuqCxdgVUlkU-717" vertex="1">
          <mxGeometry x="440" y="193.75" width="90" height="26.25" as="geometry" />
        </mxCell>
        <mxCell id="OOlYLd6TCuqCxdgVUlkU-750" value="The Footer Text" style="rounded=1;whiteSpace=wrap;html=1;" parent="OOlYLd6TCuqCxdgVUlkU-717" vertex="1">
          <mxGeometry x="180" y="130" width="219.5" height="26.25" as="geometry" />
        </mxCell>
        <mxCell id="OOlYLd6TCuqCxdgVUlkU-752" value="" style="group" parent="OOlYLd6TCuqCxdgVUlkU-717" vertex="1" connectable="0">
          <mxGeometry x="181" y="246" width="364" height="26.25" as="geometry" />
        </mxCell>
        <mxCell id="OOlYLd6TCuqCxdgVUlkU-740" value="Link" style="rounded=1;whiteSpace=wrap;html=1;" parent="OOlYLd6TCuqCxdgVUlkU-752" vertex="1">
          <mxGeometry x="74.83113069016153" width="118.12628487518356" height="26.25" as="geometry" />
        </mxCell>
        <mxCell id="OOlYLd6TCuqCxdgVUlkU-741" value="Delete" style="rounded=1;whiteSpace=wrap;html=1;fillColor=#f8cecc;strokeColor=#b85450;" parent="OOlYLd6TCuqCxdgVUlkU-752" vertex="1">
          <mxGeometry x="289.1688693098385" width="74.83113069016153" height="26.25" as="geometry" />
        </mxCell>
        <mxCell id="OOlYLd6TCuqCxdgVUlkU-751" value="title" style="rounded=1;whiteSpace=wrap;html=1;" parent="OOlYLd6TCuqCxdgVUlkU-752" vertex="1">
          <mxGeometry width="64.6754772393539" height="26.25" as="geometry" />
        </mxCell>
        <mxCell id="OOlYLd6TCuqCxdgVUlkU-739" value="icon-name" style="rounded=1;whiteSpace=wrap;html=1;" parent="OOlYLd6TCuqCxdgVUlkU-752" vertex="1">
          <mxGeometry x="204.18208516886932" width="73.22760646108664" height="26.25" as="geometry" />
        </mxCell>
        <mxCell id="ygmrMFlOwkWCzzU3Cko4-17" value="update" style="rounded=1;whiteSpace=wrap;html=1;" vertex="1" parent="OOlYLd6TCuqCxdgVUlkU-717">
          <mxGeometry x="425.88" y="134.38" width="94.62" height="17.5" as="geometry" />
        </mxCell>
        <mxCell id="ygmrMFlOwkWCzzU3Cko4-26" value="Update Links" style="rounded=1;whiteSpace=wrap;html=1;" vertex="1" parent="OOlYLd6TCuqCxdgVUlkU-717">
          <mxGeometry x="305.62" y="293" width="110.5" height="26.25" as="geometry" />
        </mxCell>
        <mxCell id="ygmrMFlOwkWCzzU3Cko4-27" value="Add another link" style="rounded=1;whiteSpace=wrap;html=1;" vertex="1" parent="OOlYLd6TCuqCxdgVUlkU-717">
          <mxGeometry x="181" y="293" width="110.5" height="26.25" as="geometry" />
        </mxCell>
        <mxCell id="OOlYLd6TCuqCxdgVUlkU-832" value="" style="group" parent="1" vertex="1" connectable="0">
          <mxGeometry x="1380" y="440" width="620" height="348" as="geometry" />
        </mxCell>
        <mxCell id="OOlYLd6TCuqCxdgVUlkU-833" value="" style="rounded=0;whiteSpace=wrap;html=1;container=1;movable=0;resizable=0;rotatable=0;deletable=0;editable=0;locked=1;connectable=0;" parent="OOlYLd6TCuqCxdgVUlkU-832" vertex="1">
          <mxGeometry y="28" width="620" height="320" as="geometry" />
        </mxCell>
        <mxCell id="OOlYLd6TCuqCxdgVUlkU-834" value="User Settings: /settings" style="text;html=1;align=center;verticalAlign=middle;resizable=0;points=[];autosize=1;strokeColor=none;fillColor=none;" parent="OOlYLd6TCuqCxdgVUlkU-832" vertex="1">
          <mxGeometry x="21" width="150" height="30" as="geometry" />
        </mxCell>
        <mxCell id="OOlYLd6TCuqCxdgVUlkU-835" value="" style="endArrow=none;html=1;rounded=0;" parent="OOlYLd6TCuqCxdgVUlkU-832" edge="1">
          <mxGeometry width="50" height="50" relative="1" as="geometry">
            <mxPoint x="152" y="342.5" as="sourcePoint" />
            <mxPoint x="149" y="33.5" as="targetPoint" />
          </mxGeometry>
        </mxCell>
        <mxCell id="OOlYLd6TCuqCxdgVUlkU-836" value="Logo" style="rounded=1;whiteSpace=wrap;html=1;" parent="OOlYLd6TCuqCxdgVUlkU-832" vertex="1">
          <mxGeometry x="33" y="44" width="90" height="20" as="geometry" />
        </mxCell>
        <mxCell id="OOlYLd6TCuqCxdgVUlkU-840" value="" style="endArrow=none;html=1;rounded=0;" parent="OOlYLd6TCuqCxdgVUlkU-832" edge="1">
          <mxGeometry width="50" height="50" relative="1" as="geometry">
            <mxPoint y="75" as="sourcePoint" />
            <mxPoint x="620" y="75" as="targetPoint" />
          </mxGeometry>
        </mxCell>
        <mxCell id="OOlYLd6TCuqCxdgVUlkU-841" value="Settings" style="rounded=1;whiteSpace=wrap;html=1;" parent="OOlYLd6TCuqCxdgVUlkU-832" vertex="1">
          <mxGeometry x="179.5" y="42" width="120" height="16" as="geometry" />
        </mxCell>
        <mxCell id="OOlYLd6TCuqCxdgVUlkU-842" value="user name | logout" style="rounded=1;whiteSpace=wrap;html=1;" parent="OOlYLd6TCuqCxdgVUlkU-832" vertex="1">
          <mxGeometry x="474" y="44" width="120" height="16" as="geometry" />
        </mxCell>
        <mxCell id="OOlYLd6TCuqCxdgVUlkU-844" value="Change Password" style="rounded=1;whiteSpace=wrap;html=1;fillColor=#d5e8d4;strokeColor=#82b366;" parent="OOlYLd6TCuqCxdgVUlkU-832" vertex="1">
          <mxGeometry x="210" y="233" width="310" height="16" as="geometry" />
        </mxCell>
        <mxCell id="OOlYLd6TCuqCxdgVUlkU-845" value="Enter old password" style="rounded=1;whiteSpace=wrap;html=1;" parent="OOlYLd6TCuqCxdgVUlkU-832" vertex="1">
          <mxGeometry x="210" y="144" width="310" height="16" as="geometry" />
        </mxCell>
        <mxCell id="OOlYLd6TCuqCxdgVUlkU-846" value="Enter new password" style="rounded=1;whiteSpace=wrap;html=1;" parent="OOlYLd6TCuqCxdgVUlkU-832" vertex="1">
          <mxGeometry x="210" y="171" width="310" height="16" as="geometry" />
        </mxCell>
        <mxCell id="OOlYLd6TCuqCxdgVUlkU-847" value="Confirm new password" style="rounded=1;whiteSpace=wrap;html=1;" parent="OOlYLd6TCuqCxdgVUlkU-832" vertex="1">
          <mxGeometry x="210" y="200" width="310" height="16" as="geometry" />
        </mxCell>
        <mxCell id="OOlYLd6TCuqCxdgVUlkU-848" value="sidebar menu" style="rounded=1;whiteSpace=wrap;html=1;" parent="OOlYLd6TCuqCxdgVUlkU-832" vertex="1">
          <mxGeometry x="18" y="111" width="120" height="179" as="geometry" />
        </mxCell>
        <mxCell id="ygmrMFlOwkWCzzU3Cko4-1" style="edgeStyle=orthogonalEdgeStyle;rounded=0;orthogonalLoop=1;jettySize=auto;html=1;entryX=0;entryY=0.25;entryDx=0;entryDy=0;" edge="1" parent="1" target="OOlYLd6TCuqCxdgVUlkU-32">
          <mxGeometry relative="1" as="geometry">
            <mxPoint x="640" y="200" as="sourcePoint" />
          </mxGeometry>
        </mxCell>
        <mxCell id="ygmrMFlOwkWCzzU3Cko4-3" style="edgeStyle=orthogonalEdgeStyle;rounded=0;orthogonalLoop=1;jettySize=auto;html=1;entryX=0;entryY=0.25;entryDx=0;entryDy=0;" edge="1" parent="1" source="OOlYLd6TCuqCxdgVUlkU-5" target="OOlYLd6TCuqCxdgVUlkU-13">
          <mxGeometry relative="1" as="geometry">
            <Array as="points">
              <mxPoint x="540" y="150" />
              <mxPoint x="730" y="150" />
            </Array>
          </mxGeometry>
        </mxCell>
        <mxCell id="ygmrMFlOwkWCzzU3Cko4-92" value="" style="group" vertex="1" connectable="0" parent="1">
          <mxGeometry x="2151" y="2173" width="620" height="415" as="geometry" />
        </mxCell>
        <mxCell id="ygmrMFlOwkWCzzU3Cko4-93" value="" style="rounded=0;whiteSpace=wrap;html=1;container=1;movable=0;resizable=0;rotatable=0;deletable=0;editable=0;locked=1;connectable=0;" vertex="1" parent="ygmrMFlOwkWCzzU3Cko4-92">
          <mxGeometry y="28" width="620" height="320" as="geometry" />
        </mxCell>
        <mxCell id="ygmrMFlOwkWCzzU3Cko4-94" value="Manage Users: /_/admins" style="text;html=1;align=center;verticalAlign=middle;resizable=0;points=[];autosize=1;strokeColor=none;fillColor=none;" vertex="1" parent="ygmrMFlOwkWCzzU3Cko4-92">
          <mxGeometry x="-5" width="155" height="26" as="geometry" />
        </mxCell>
        <mxCell id="ygmrMFlOwkWCzzU3Cko4-95" value="" style="endArrow=none;html=1;rounded=0;" edge="1" parent="ygmrMFlOwkWCzzU3Cko4-92">
          <mxGeometry width="50" height="50" relative="1" as="geometry">
            <mxPoint x="152" y="342.5" as="sourcePoint" />
            <mxPoint x="149" y="33.5" as="targetPoint" />
          </mxGeometry>
        </mxCell>
        <mxCell id="ygmrMFlOwkWCzzU3Cko4-96" value="Logo" style="rounded=1;whiteSpace=wrap;html=1;" vertex="1" parent="ygmrMFlOwkWCzzU3Cko4-92">
          <mxGeometry x="30" y="42" width="90" height="20" as="geometry" />
        </mxCell>
        <mxCell id="ygmrMFlOwkWCzzU3Cko4-97" value="" style="endArrow=none;html=1;rounded=0;" edge="1" parent="ygmrMFlOwkWCzzU3Cko4-92">
          <mxGeometry width="50" height="50" relative="1" as="geometry">
            <mxPoint y="77" as="sourcePoint" />
            <mxPoint x="620" y="77" as="targetPoint" />
          </mxGeometry>
        </mxCell>
        <mxCell id="ygmrMFlOwkWCzzU3Cko4-99" value="#01 | John Doe | jdoe | jdoe@example.com" style="rounded=0;whiteSpace=wrap;html=1;" vertex="1" parent="ygmrMFlOwkWCzzU3Cko4-92">
          <mxGeometry x="190" y="145.5" width="254.5" height="48" as="geometry" />
        </mxCell>
        <mxCell id="ygmrMFlOwkWCzzU3Cko4-100" value=".........." style="rounded=0;whiteSpace=wrap;html=1;" vertex="1" parent="ygmrMFlOwkWCzzU3Cko4-92">
          <mxGeometry x="190" y="206" width="372" height="37" as="geometry" />
        </mxCell>
        <mxCell id="ygmrMFlOwkWCzzU3Cko4-101" value="Manage Users" style="rounded=1;whiteSpace=wrap;html=1;" vertex="1" parent="ygmrMFlOwkWCzzU3Cko4-92">
          <mxGeometry x="179.5" y="44" width="120" height="16" as="geometry" />
        </mxCell>
        <mxCell id="ygmrMFlOwkWCzzU3Cko4-102" value="admin name | logout" style="rounded=1;whiteSpace=wrap;html=1;" vertex="1" parent="ygmrMFlOwkWCzzU3Cko4-92">
          <mxGeometry x="474" y="46" width="120" height="16" as="geometry" />
        </mxCell>
        <mxCell id="ygmrMFlOwkWCzzU3Cko4-134" style="edgeStyle=orthogonalEdgeStyle;rounded=0;orthogonalLoop=1;jettySize=auto;html=1;exitX=1;exitY=0.75;exitDx=0;exitDy=0;" edge="1" parent="ygmrMFlOwkWCzzU3Cko4-92" source="ygmrMFlOwkWCzzU3Cko4-105">
          <mxGeometry relative="1" as="geometry">
            <mxPoint x="1334.454545454545" y="-1287.0909090909095" as="targetPoint" />
            <Array as="points">
              <mxPoint x="1431" y="161" />
              <mxPoint x="1431" y="-1287" />
            </Array>
          </mxGeometry>
        </mxCell>
        <mxCell id="ygmrMFlOwkWCzzU3Cko4-105" value="Modify" style="rounded=0;whiteSpace=wrap;html=1;" vertex="1" parent="ygmrMFlOwkWCzzU3Cko4-92">
          <mxGeometry x="509.5" y="144.5" width="52" height="22" as="geometry" />
        </mxCell>
        <mxCell id="ygmrMFlOwkWCzzU3Cko4-135" style="edgeStyle=orthogonalEdgeStyle;rounded=0;orthogonalLoop=1;jettySize=auto;html=1;exitX=1;exitY=0.5;exitDx=0;exitDy=0;" edge="1" parent="ygmrMFlOwkWCzzU3Cko4-92" source="ygmrMFlOwkWCzzU3Cko4-106">
          <mxGeometry relative="1" as="geometry">
            <mxPoint x="1330.818181818181" y="-918.0000000000002" as="targetPoint" />
            <Array as="points">
              <mxPoint x="1494" y="183" />
              <mxPoint x="1494" y="-918" />
            </Array>
          </mxGeometry>
        </mxCell>
        <mxCell id="ygmrMFlOwkWCzzU3Cko4-106" value="Delete" style="rounded=0;whiteSpace=wrap;html=1;" vertex="1" parent="ygmrMFlOwkWCzzU3Cko4-92">
          <mxGeometry x="509.5" y="171.5" width="53.5" height="23" as="geometry" />
        </mxCell>
        <mxCell id="ygmrMFlOwkWCzzU3Cko4-107" value="View Details" style="rounded=0;whiteSpace=wrap;html=1;" vertex="1" parent="ygmrMFlOwkWCzzU3Cko4-92">
          <mxGeometry x="451" y="144.25" width="52" height="50.5" as="geometry" />
        </mxCell>
        <mxCell id="ygmrMFlOwkWCzzU3Cko4-108" value=".........." style="rounded=0;whiteSpace=wrap;html=1;" vertex="1" parent="ygmrMFlOwkWCzzU3Cko4-92">
          <mxGeometry x="191" y="249" width="372" height="37" as="geometry" />
        </mxCell>
        <mxCell id="ygmrMFlOwkWCzzU3Cko4-109" value="Filters" style="rounded=0;whiteSpace=wrap;html=1;" vertex="1" parent="ygmrMFlOwkWCzzU3Cko4-92">
          <mxGeometry x="189" y="87" width="230" height="19" as="geometry" />
        </mxCell>
        <mxCell id="ygmrMFlOwkWCzzU3Cko4-110" value="Search Query" style="rounded=0;whiteSpace=wrap;html=1;" vertex="1" parent="ygmrMFlOwkWCzzU3Cko4-92">
          <mxGeometry x="425" y="87" width="110" height="19" as="geometry" />
        </mxCell>
        <mxCell id="ygmrMFlOwkWCzzU3Cko4-111" value="&lt;font style=&quot;font-size: 22px;&quot;&gt;*&lt;/font&gt;" style="rounded=0;whiteSpace=wrap;html=1;" vertex="1" parent="ygmrMFlOwkWCzzU3Cko4-92">
          <mxGeometry x="542" y="87" width="21" height="19" as="geometry" />
        </mxCell>
        <mxCell id="ygmrMFlOwkWCzzU3Cko4-112" value="" style="group" vertex="1" connectable="0" parent="ygmrMFlOwkWCzzU3Cko4-92">
          <mxGeometry x="20" y="114" width="116" height="156" as="geometry" />
        </mxCell>
        <mxCell id="ygmrMFlOwkWCzzU3Cko4-113" value="Dashboard" style="rounded=1;whiteSpace=wrap;html=1;fillColor=#ffffff;strokeColor=default;" vertex="1" parent="ygmrMFlOwkWCzzU3Cko4-112">
          <mxGeometry width="114" height="25" as="geometry" />
        </mxCell>
        <mxCell id="ygmrMFlOwkWCzzU3Cko4-114" value="Users" style="rounded=1;whiteSpace=wrap;html=1;" vertex="1" parent="ygmrMFlOwkWCzzU3Cko4-112">
          <mxGeometry y="34" width="114" height="25" as="geometry" />
        </mxCell>
        <mxCell id="ygmrMFlOwkWCzzU3Cko4-116" value="Pages" style="rounded=1;whiteSpace=wrap;html=1;" vertex="1" parent="ygmrMFlOwkWCzzU3Cko4-112">
          <mxGeometry x="2" y="131" width="114" height="25" as="geometry" />
        </mxCell>
        <mxCell id="ygmrMFlOwkWCzzU3Cko4-117" value="New User" style="rounded=1;whiteSpace=wrap;html=1;" vertex="1" parent="ygmrMFlOwkWCzzU3Cko4-112">
          <mxGeometry x="2" y="68" width="114" height="25" as="geometry" />
        </mxCell>
        <mxCell id="ygmrMFlOwkWCzzU3Cko4-118" value="Admins" style="rounded=1;whiteSpace=wrap;html=1;fillColor=#cce5ff;strokeColor=#36393d;" vertex="1" parent="ygmrMFlOwkWCzzU3Cko4-112">
          <mxGeometry x="2" y="100" width="114" height="25" as="geometry" />
        </mxCell>
        <mxCell id="ygmrMFlOwkWCzzU3Cko4-158" value="" style="group" vertex="1" connectable="0" parent="1">
          <mxGeometry x="3516" y="545" width="116" height="159" as="geometry" />
        </mxCell>
        <mxCell id="ygmrMFlOwkWCzzU3Cko4-159" value="Dashboard" style="rounded=1;whiteSpace=wrap;html=1;" vertex="1" parent="ygmrMFlOwkWCzzU3Cko4-158">
          <mxGeometry width="114" height="25.48076923076923" as="geometry" />
        </mxCell>
        <mxCell id="ygmrMFlOwkWCzzU3Cko4-160" value="Users" style="rounded=1;whiteSpace=wrap;html=1;" vertex="1" parent="ygmrMFlOwkWCzzU3Cko4-158">
          <mxGeometry y="34.65384615384615" width="114" height="25.48076923076923" as="geometry" />
        </mxCell>
        <mxCell id="ygmrMFlOwkWCzzU3Cko4-161" value="Pages" style="rounded=1;whiteSpace=wrap;html=1;" vertex="1" parent="ygmrMFlOwkWCzzU3Cko4-158">
          <mxGeometry x="2" y="133.51923076923077" width="114" height="25.48076923076923" as="geometry" />
        </mxCell>
        <mxCell id="ygmrMFlOwkWCzzU3Cko4-162" value="New User" style="rounded=1;whiteSpace=wrap;html=1;" vertex="1" parent="ygmrMFlOwkWCzzU3Cko4-158">
          <mxGeometry x="2" y="69.3076923076923" width="114" height="25.48076923076923" as="geometry" />
        </mxCell>
        <mxCell id="ygmrMFlOwkWCzzU3Cko4-163" value="Admins" style="rounded=1;whiteSpace=wrap;html=1;" vertex="1" parent="ygmrMFlOwkWCzzU3Cko4-158">
          <mxGeometry x="2" y="101.92307692307692" width="114" height="25.48076923076923" as="geometry" />
        </mxCell>
        <mxCell id="ygmrMFlOwkWCzzU3Cko4-184" value="" style="group" vertex="1" connectable="0" parent="1">
          <mxGeometry x="3690" y="490" width="116" height="159" as="geometry" />
        </mxCell>
        <mxCell id="ygmrMFlOwkWCzzU3Cko4-185" value="Dashboard" style="rounded=1;whiteSpace=wrap;html=1;" vertex="1" parent="ygmrMFlOwkWCzzU3Cko4-184">
          <mxGeometry width="114" height="25.48076923076923" as="geometry" />
        </mxCell>
        <mxCell id="ygmrMFlOwkWCzzU3Cko4-186" value="Users" style="rounded=1;whiteSpace=wrap;html=1;" vertex="1" parent="ygmrMFlOwkWCzzU3Cko4-184">
          <mxGeometry y="34.65384615384615" width="114" height="25.48076923076923" as="geometry" />
        </mxCell>
        <mxCell id="ygmrMFlOwkWCzzU3Cko4-187" value="Pages" style="rounded=1;whiteSpace=wrap;html=1;" vertex="1" parent="ygmrMFlOwkWCzzU3Cko4-184">
          <mxGeometry x="2" y="133.51923076923077" width="114" height="25.48076923076923" as="geometry" />
        </mxCell>
        <mxCell id="ygmrMFlOwkWCzzU3Cko4-188" value="New User" style="rounded=1;whiteSpace=wrap;html=1;" vertex="1" parent="ygmrMFlOwkWCzzU3Cko4-184">
          <mxGeometry x="2" y="69.3076923076923" width="114" height="25.48076923076923" as="geometry" />
        </mxCell>
        <mxCell id="ygmrMFlOwkWCzzU3Cko4-189" value="Admins" style="rounded=1;whiteSpace=wrap;html=1;" vertex="1" parent="ygmrMFlOwkWCzzU3Cko4-184">
          <mxGeometry x="2" y="101.92307692307692" width="114" height="25.48076923076923" as="geometry" />
        </mxCell>
        <mxCell id="ygmrMFlOwkWCzzU3Cko4-205" value="" style="group" vertex="1" connectable="0" parent="1">
          <mxGeometry x="2863" y="-25" width="620" height="348" as="geometry" />
        </mxCell>
        <mxCell id="ygmrMFlOwkWCzzU3Cko4-206" value="" style="rounded=0;whiteSpace=wrap;html=1;container=1;movable=0;resizable=0;rotatable=0;deletable=0;editable=0;locked=1;connectable=0;" vertex="1" parent="ygmrMFlOwkWCzzU3Cko4-205">
          <mxGeometry y="28" width="620" height="320" as="geometry" />
        </mxCell>
        <mxCell id="ygmrMFlOwkWCzzU3Cko4-207" value="Admin Dashboard: /_/new-user" style="text;html=1;align=center;verticalAlign=middle;resizable=0;points=[];autosize=1;strokeColor=none;fillColor=none;" vertex="1" parent="ygmrMFlOwkWCzzU3Cko4-205">
          <mxGeometry x="5" y="2" width="183" height="26" as="geometry" />
        </mxCell>
        <mxCell id="ygmrMFlOwkWCzzU3Cko4-208" value="" style="endArrow=none;html=1;rounded=0;" edge="1" parent="ygmrMFlOwkWCzzU3Cko4-205">
          <mxGeometry width="50" height="50" relative="1" as="geometry">
            <mxPoint x="152" y="342.5" as="sourcePoint" />
            <mxPoint x="149" y="33.5" as="targetPoint" />
          </mxGeometry>
        </mxCell>
        <mxCell id="ygmrMFlOwkWCzzU3Cko4-209" value="Logo" style="rounded=1;whiteSpace=wrap;html=1;" vertex="1" parent="ygmrMFlOwkWCzzU3Cko4-205">
          <mxGeometry x="33" y="44" width="90" height="20" as="geometry" />
        </mxCell>
        <mxCell id="ygmrMFlOwkWCzzU3Cko4-210" value="" style="endArrow=none;html=1;rounded=0;" edge="1" parent="ygmrMFlOwkWCzzU3Cko4-205">
          <mxGeometry width="50" height="50" relative="1" as="geometry">
            <mxPoint y="75" as="sourcePoint" />
            <mxPoint x="620" y="75" as="targetPoint" />
          </mxGeometry>
        </mxCell>
        <mxCell id="ygmrMFlOwkWCzzU3Cko4-211" value="Settings" style="rounded=1;whiteSpace=wrap;html=1;" vertex="1" parent="ygmrMFlOwkWCzzU3Cko4-205">
          <mxGeometry x="179.5" y="42" width="120" height="16" as="geometry" />
        </mxCell>
        <mxCell id="ygmrMFlOwkWCzzU3Cko4-212" value="admin name | logout" style="rounded=1;whiteSpace=wrap;html=1;" vertex="1" parent="ygmrMFlOwkWCzzU3Cko4-205">
          <mxGeometry x="474" y="44" width="120" height="16" as="geometry" />
        </mxCell>
        <mxCell id="ygmrMFlOwkWCzzU3Cko4-213" value="Create new user" style="rounded=1;whiteSpace=wrap;html=1;fillColor=#d5e8d4;strokeColor=#82b366;" vertex="1" parent="ygmrMFlOwkWCzzU3Cko4-205">
          <mxGeometry x="210" y="300" width="310" height="16" as="geometry" />
        </mxCell>
        <mxCell id="ygmrMFlOwkWCzzU3Cko4-215" value="email" style="rounded=1;whiteSpace=wrap;html=1;" vertex="1" parent="ygmrMFlOwkWCzzU3Cko4-205">
          <mxGeometry x="210" y="126" width="310" height="16" as="geometry" />
        </mxCell>
        <mxCell id="ygmrMFlOwkWCzzU3Cko4-216" value="Confirm new password" style="rounded=1;whiteSpace=wrap;html=1;" vertex="1" parent="ygmrMFlOwkWCzzU3Cko4-205">
          <mxGeometry x="212" y="216" width="310" height="16" as="geometry" />
        </mxCell>
        <mxCell id="ygmrMFlOwkWCzzU3Cko4-217" value="" style="group" vertex="1" connectable="0" parent="ygmrMFlOwkWCzzU3Cko4-205">
          <mxGeometry x="17" y="117" width="116" height="156" as="geometry" />
        </mxCell>
        <mxCell id="ygmrMFlOwkWCzzU3Cko4-218" value="Dashboard" style="rounded=1;whiteSpace=wrap;html=1;" vertex="1" parent="ygmrMFlOwkWCzzU3Cko4-217">
          <mxGeometry width="114" height="25" as="geometry" />
        </mxCell>
        <mxCell id="ygmrMFlOwkWCzzU3Cko4-219" value="Users" style="rounded=1;whiteSpace=wrap;html=1;" vertex="1" parent="ygmrMFlOwkWCzzU3Cko4-217">
          <mxGeometry y="34" width="114" height="25" as="geometry" />
        </mxCell>
        <mxCell id="ygmrMFlOwkWCzzU3Cko4-220" value="Pages" style="rounded=1;whiteSpace=wrap;html=1;" vertex="1" parent="ygmrMFlOwkWCzzU3Cko4-217">
          <mxGeometry x="2" y="131" width="114" height="25" as="geometry" />
        </mxCell>
        <mxCell id="ygmrMFlOwkWCzzU3Cko4-221" value="New User" style="rounded=1;whiteSpace=wrap;html=1;fillColor=#cce5ff;strokeColor=#36393d;" vertex="1" parent="ygmrMFlOwkWCzzU3Cko4-217">
          <mxGeometry x="2" y="68" width="114" height="25" as="geometry" />
        </mxCell>
        <mxCell id="ygmrMFlOwkWCzzU3Cko4-222" value="Admins" style="rounded=1;whiteSpace=wrap;html=1;" vertex="1" parent="ygmrMFlOwkWCzzU3Cko4-217">
          <mxGeometry x="2" y="100" width="114" height="25" as="geometry" />
        </mxCell>
        <mxCell id="ygmrMFlOwkWCzzU3Cko4-224" value="username" style="rounded=1;whiteSpace=wrap;html=1;" vertex="1" parent="ygmrMFlOwkWCzzU3Cko4-205">
          <mxGeometry x="210" y="152" width="310" height="16" as="geometry" />
        </mxCell>
        <mxCell id="ygmrMFlOwkWCzzU3Cko4-225" value="full name" style="rounded=1;whiteSpace=wrap;html=1;" vertex="1" parent="ygmrMFlOwkWCzzU3Cko4-205">
          <mxGeometry x="210" y="176" width="310" height="16" as="geometry" />
        </mxCell>
        <mxCell id="ygmrMFlOwkWCzzU3Cko4-226" value="password" style="rounded=1;whiteSpace=wrap;html=1;" vertex="1" parent="ygmrMFlOwkWCzzU3Cko4-205">
          <mxGeometry x="212" y="196" width="310" height="16" as="geometry" />
        </mxCell>
        <mxCell id="ygmrMFlOwkWCzzU3Cko4-227" value="user type:" style="rounded=1;whiteSpace=wrap;html=1;" vertex="1" parent="ygmrMFlOwkWCzzU3Cko4-205">
          <mxGeometry x="212" y="244" width="107" height="16" as="geometry" />
        </mxCell>
        <mxCell id="ygmrMFlOwkWCzzU3Cko4-228" value="USER" style="rounded=1;whiteSpace=wrap;html=1;" vertex="1" parent="ygmrMFlOwkWCzzU3Cko4-205">
          <mxGeometry x="329" y="244" width="107" height="16" as="geometry" />
        </mxCell>
        <mxCell id="ygmrMFlOwkWCzzU3Cko4-229" value="Admin" style="rounded=1;whiteSpace=wrap;html=1;dashed=1;" vertex="1" parent="ygmrMFlOwkWCzzU3Cko4-205">
          <mxGeometry x="329" y="268" width="107" height="16" as="geometry" />
        </mxCell>
        <mxCell id="ygmrMFlOwkWCzzU3Cko4-231" value="" style="rounded=1;whiteSpace=wrap;html=1;dashed=1;dashPattern=1 1;fillColor=none;" vertex="1" parent="ygmrMFlOwkWCzzU3Cko4-205">
          <mxGeometry x="322.5" y="239" width="119.5" height="51" as="geometry" />
        </mxCell>
      </root>
    </mxGraphModel>
  </diagram>
</mxfile>
